<svg xmlns="http://www.w3.org/2000/svg" width="230" height="212" viewBox="0 0 230 212" fill="none"><path d="M26.1723 148.771L19.9188 145.992C20.7062 144 21.679 140.294 18.1585 139.785C16.8615 139.692 15.3328 140.109 14.0358 140.989C12.6461 141.916 11.6733 143.954 11.8586 145.39C12.0439 146.826 12.1829 147.011 13.0167 148.077C13.7578 149.003 15.3328 150.254 16.8151 151.18C18.4364 152.292 20.1504 153.357 21.4474 154.608C22.7908 155.72 23.8099 157.063 24.1804 158.87C27.1451 173.323 2.26981 176.889 0.50955 165.679C0 162.251 1.52865 158.314 5.00285 156.6L9.26454 160.954C5.69769 162.298 4.21536 164.614 4.86388 166.42C5.60505 168.598 9.44983 169.385 12.6461 167.856C14.3137 167.162 15.8424 165.679 16.5372 163.502C17.4173 161.093 15.3791 159.055 13.7115 157.712C11.9049 156.415 10.8395 155.674 9.31086 154.562C7.78221 153.311 6.16092 151.551 5.32711 150.022C3.0573 145.899 3.98375 140.85 8.80131 138.395C11.488 137.052 14.36 136.542 17.3247 136.82C21.4474 137.283 24.829 139.322 26.0797 142.842C26.6355 144.556 26.6355 146.594 26.1723 148.771ZM39.6949 163.456H41.5478C37.842 173.369 24.1768 176.009 26.7709 163.27L29.226 151.227H26.4466L27.6047 148.401H29.8282L31.0789 142.379L37.6567 141.082L36.2207 148.401H39.9729L38.6295 151.227H35.7112L32.6076 166.606C31.5421 172.025 38.12 167.995 39.6949 163.456ZM54.7777 148.401H61.3092L57.835 165.587C55.7968 176.519 52.6931 186.108 38.8427 182.216L43.2433 177.769C44.4014 178.742 48.1998 180.78 48.7094 178.233L50.7013 168.505C45.5131 173.878 36.8508 173.415 38.9816 163.085L41.8999 148.401H48.4778C47.0418 155.535 45.8374 161.418 44.8183 166.513C43.8455 171.562 49.2653 168.598 51.4887 164.706L54.7777 148.401ZM73.4696 163.78H75.2298C71.7556 173.276 58.6926 175.824 61.1477 163.456L66.0116 139.136H72.2652C70.6902 147.011 67.6792 161.418 66.6138 166.745C65.5947 172.025 72.0336 168.088 73.4696 163.78ZM90.2395 163.595H91.9071C88.2939 170.265 84.4955 171.979 79.2147 171.84C70.4597 171.562 70.3207 160.491 74.6287 153.635C78.1493 148.169 84.1712 147.011 86.8116 149.235C89.1741 151.134 89.2204 154.654 87.8307 157.388C85.7462 161.232 81.8551 162.668 77.8713 162.529C77.9176 164.753 78.7515 167.347 80.7433 168.32C84.3102 169.987 88.0623 167.208 90.2395 163.595ZM78.0566 159.843C78.0566 160.028 78.0103 160.213 78.0103 160.352C85.3293 160.584 86.1631 151.782 85.005 150.856C84.0786 150.161 82.0404 151.041 80.3727 153.682C79.4 155.164 78.5662 157.249 78.0566 159.843ZM123.975 148.771L117.721 145.992C118.509 144 119.481 140.294 115.961 139.785C114.664 139.692 113.135 140.109 111.838 140.989C110.448 141.916 109.476 143.954 109.661 145.39C109.846 146.826 109.985 147.011 110.819 148.077C111.56 149.003 113.135 150.254 114.618 151.18C116.239 152.292 117.953 153.357 119.25 154.608C120.593 155.72 121.612 157.063 121.983 158.87C124.947 173.323 100.072 176.889 98.3119 165.679C97.8024 162.251 99.331 158.314 102.805 156.6L107.067 160.954C103.5 162.298 102.018 164.614 102.666 166.42C103.407 168.598 107.252 169.385 110.448 167.856C112.116 167.162 113.645 165.679 114.34 163.502C115.22 161.093 113.182 159.055 111.514 157.712C109.707 156.415 108.642 155.674 107.113 154.562C105.585 153.311 103.963 151.551 103.129 150.022C100.86 145.899 101.786 140.85 106.604 138.395C109.29 137.052 112.162 136.542 115.127 136.82C119.25 137.283 122.631 139.322 123.882 142.842C124.438 144.556 124.438 146.594 123.975 148.771ZM134.069 149.791C141.296 144.927 145.465 151.921 145.418 158.314C145.372 161.279 144.677 164.382 143.241 166.93C142.546 168.273 141.666 169.385 140.462 170.219C139.211 171.238 137.59 171.84 135.783 171.84C133.884 171.84 131.058 170.914 130.039 169.802L127.445 183.143H120.914L127.816 148.401H134.347L134.069 149.791ZM138.748 161.186C139.582 156.739 139.86 147.891 133.653 152.06L130.595 167.162C132.633 169.895 135.089 168.876 136.617 166.745C137.544 165.448 138.331 163.409 138.748 161.186ZM173.734 163.641H175.54C172.344 172.164 161.226 175.175 160.624 167.208C155.714 174.527 145.152 173.184 145.986 163.595C146.635 156.137 150.294 148.679 158.586 148.401H170.306L169.935 150.161C168.499 157.249 167.526 161.371 166.461 166.698C165.442 171.979 172.205 167.995 173.734 163.641ZM160.763 164.151L162.987 152.663C160.161 147.521 154.695 152.524 153.074 160.028C151.313 168.412 154.371 172.767 160.763 164.151ZM190.12 163.595H191.833C189.1 168.366 184.978 171.655 179.882 171.84C173.165 172.118 171.174 165.865 172.471 159.565C173.351 155.118 175.806 150.532 179.975 148.818C182.43 147.799 184.839 147.984 186.46 149.281C188.822 151.134 189.286 154.793 187.896 157.388C187.711 157.804 187.479 158.129 187.248 158.499L185.117 154.747C186.182 152.709 186.043 151.227 185.487 150.856C184.931 150.485 183.959 150.624 182.939 151.366C180.299 153.265 178.956 157.063 178.493 160.028C177.798 164.799 179.002 167.579 181.133 168.412C184.468 169.709 187.85 166.467 190.12 163.595ZM208.399 163.595H210.066C206.453 170.265 202.654 171.979 197.374 171.84C188.619 171.562 188.48 160.491 192.788 153.635C196.308 148.169 202.33 147.011 204.971 149.235C207.333 151.134 207.379 154.654 205.99 157.388C203.905 161.232 200.014 162.668 196.03 162.529C196.077 164.753 196.91 167.347 198.902 168.32C202.469 169.987 206.221 167.208 208.399 163.595ZM196.216 159.843C196.216 160.028 196.169 160.213 196.169 160.352C203.488 160.584 204.322 151.782 203.164 150.856C202.238 150.161 200.199 151.041 198.532 153.682C197.559 155.164 196.725 157.249 196.216 159.843ZM228.366 156.229L223.131 154.377C223.826 152.987 224.614 150.439 221.834 150.207C220.815 150.022 219.425 150.346 218.592 150.995C217.156 151.597 216.368 152.941 216.553 153.867C216.692 154.886 216.831 155.025 217.434 155.674C218.221 156.368 219.379 157.156 220.769 157.897C221.973 158.499 223.363 159.333 224.521 160.121C225.54 160.954 226.281 161.834 226.698 162.993C229.107 172.628 208.586 174.99 207.196 167.44C206.826 165.216 208.215 162.668 210.995 161.464L214.423 164.382C211.551 165.262 210.254 166.791 210.856 168.042C211.458 169.57 214.562 170.034 217.156 169.061C218.638 168.412 219.842 167.486 220.445 166.096C221.139 164.521 219.472 163.178 218.175 162.205C216.553 161.279 215.627 160.908 214.469 160.028C213.265 159.333 211.875 158.082 211.226 156.971C209.281 154.33 210.022 150.902 214.052 149.281C216.229 148.308 218.638 148.03 221.047 148.262C224.521 148.447 227.161 149.791 228.273 152.199C228.736 153.311 228.736 154.793 228.366 156.229Z" fill="#E7A05E"></path><path d="M12.0067 206.354V194.398H13.8514V206.354H12.0067ZM16.3948 206.354V197.934H18.1199V199.198H18.3932C18.5526 198.856 18.8373 198.537 19.2472 198.241C19.6572 197.945 20.2664 197.797 21.0749 197.797C21.7125 197.797 22.2762 197.939 22.7658 198.224C23.2669 198.509 23.6597 198.913 23.9444 199.437C24.2291 199.949 24.3714 200.57 24.3714 201.299V206.354H22.6121V201.435C22.6121 200.706 22.4299 200.171 22.0655 199.83C21.7012 199.477 21.2001 199.3 20.5624 199.3C19.8337 199.3 19.2472 199.539 18.8031 200.018C18.3704 200.496 18.1541 201.19 18.1541 202.101V206.354H16.3948ZM29.8297 206.354C29.3173 206.354 28.9074 206.201 28.5999 205.893C28.3039 205.586 28.1558 205.176 28.1558 204.664V199.42H25.8329V197.934H28.1558V195.15H29.9152V197.934H32.426V199.42H29.9152V204.356C29.9152 204.698 30.0746 204.868 30.3934 204.868H32.1527V206.354H29.8297ZM38.0529 206.594C37.1988 206.594 36.453 206.417 35.8153 206.064C35.1776 205.7 34.6766 205.193 34.3122 204.544C33.9592 203.883 33.7827 203.121 33.7827 202.255V202.05C33.7827 201.173 33.9592 200.41 34.3122 199.761C34.6652 199.101 35.1549 198.594 35.7811 198.241C36.4188 197.877 37.1533 197.695 37.9845 197.695C38.793 197.695 39.499 197.877 40.1025 198.241C40.7174 198.594 41.1957 199.09 41.5373 199.727C41.8789 200.365 42.0497 201.111 42.0497 201.965V202.631H35.5762C35.599 203.371 35.8438 203.963 36.3106 204.407C36.7889 204.84 37.381 205.056 38.087 205.056C38.7475 205.056 39.2428 204.908 39.573 204.612C39.9147 204.316 40.1766 203.975 40.3588 203.587L41.8106 204.339C41.6512 204.658 41.4178 204.994 41.1103 205.347C40.8142 205.7 40.4214 205.996 39.9317 206.235C39.4421 206.474 38.8158 206.594 38.0529 206.594ZM35.5933 201.282H40.2563C40.2107 200.644 39.983 200.149 39.573 199.796C39.1631 199.431 38.6279 199.249 37.9675 199.249C37.307 199.249 36.7661 199.431 36.3448 199.796C35.9349 200.149 35.6844 200.644 35.5933 201.282ZM44.1675 206.354V197.934H45.8926V198.924H46.1659C46.3025 198.571 46.5189 198.315 46.815 198.156C47.1224 197.985 47.4982 197.9 47.9423 197.9H48.95V199.488H47.874C47.3046 199.488 46.8377 199.647 46.4734 199.966C46.109 200.274 45.9268 200.752 45.9268 201.401V206.354H44.1675ZM50.7729 206.354V197.934H52.5322V206.354H50.7729ZM51.6611 196.789C51.3194 196.789 51.0291 196.681 50.7899 196.465C50.5622 196.237 50.4483 195.947 50.4483 195.594C50.4483 195.241 50.5622 194.956 50.7899 194.74C51.0291 194.512 51.3194 194.398 51.6611 194.398C52.0141 194.398 52.3044 194.512 52.5322 194.74C52.7599 194.956 52.8738 195.241 52.8738 195.594C52.8738 195.947 52.7599 196.237 52.5322 196.465C52.3044 196.681 52.0141 196.789 51.6611 196.789ZM59.0887 206.594C58.2461 206.594 57.4945 206.423 56.8341 206.081C56.185 205.728 55.6726 205.227 55.2968 204.578C54.9211 203.929 54.7332 203.16 54.7332 202.272V202.016C54.7332 201.128 54.9211 200.365 55.2968 199.727C55.6726 199.078 56.185 198.577 56.8341 198.224C57.4945 197.871 58.2461 197.695 59.0887 197.695C59.9314 197.695 60.6829 197.871 61.3434 198.224C62.0038 198.577 62.5219 199.078 62.8977 199.727C63.2735 200.365 63.4614 201.128 63.4614 202.016V202.272C63.4614 203.16 63.2735 203.929 62.8977 204.578C62.5219 205.227 62.0038 205.728 61.3434 206.081C60.6829 206.423 59.9314 206.594 59.0887 206.594ZM59.0887 205.022C59.863 205.022 60.4893 204.777 60.9676 204.288C61.4572 203.787 61.7021 203.098 61.7021 202.221V202.067C61.7021 201.19 61.4629 200.507 60.9847 200.018C60.5064 199.517 59.8744 199.266 59.0887 199.266C58.3258 199.266 57.6995 199.517 57.2099 200.018C56.7316 200.507 56.4925 201.19 56.4925 202.067V202.221C56.4925 203.098 56.7316 203.787 57.2099 204.288C57.6995 204.777 58.3258 205.022 59.0887 205.022ZM65.6517 206.354V197.934H67.3768V198.924H67.6501C67.7868 198.571 68.0031 198.315 68.2992 198.156C68.6066 197.985 68.9824 197.9 69.4265 197.9H70.4343V199.488H69.3582C68.7888 199.488 68.322 199.647 67.9576 199.966C67.5932 200.274 67.411 200.752 67.411 201.401V206.354H65.6517ZM76.1153 206.354V204.715H77.7209V196.038H76.1153V194.398H80.8979C82.4921 194.398 83.7105 194.802 84.5531 195.611C85.4072 196.419 85.8342 197.638 85.8342 199.266V201.504C85.8342 203.132 85.4072 204.35 84.5531 205.159C83.7105 205.956 82.4921 206.354 80.8979 206.354H76.1153ZM79.5827 204.681H80.915C81.9512 204.681 82.7198 204.419 83.2209 203.895C83.7219 203.371 83.9724 202.591 83.9724 201.555V199.198C83.9724 198.15 83.7219 197.37 83.2209 196.858C82.7198 196.345 81.9512 196.089 80.915 196.089H79.5827V204.681ZM91.8302 206.594C90.9761 206.594 90.2303 206.417 89.5926 206.064C88.9549 205.7 88.4539 205.193 88.0895 204.544C87.7365 203.883 87.56 203.121 87.56 202.255V202.05C87.56 201.173 87.7365 200.41 88.0895 199.761C88.4425 199.101 88.9321 198.594 89.5584 198.241C90.1961 197.877 90.9306 197.695 91.7618 197.695C92.5703 197.695 93.2763 197.877 93.8798 198.241C94.4947 198.594 94.973 199.09 95.3146 199.727C95.6562 200.365 95.827 201.111 95.827 201.965V202.631H89.3535C89.3762 203.371 89.6211 203.963 90.0879 204.407C90.5662 204.84 91.1583 205.056 91.8643 205.056C92.5248 205.056 93.0201 204.908 93.3503 204.612C93.6919 204.316 93.9538 203.975 94.136 203.587L95.5879 204.339C95.4285 204.658 95.195 204.994 94.8876 205.347C94.5915 205.7 94.1987 205.996 93.709 206.235C93.2194 206.474 92.5931 206.594 91.8302 206.594ZM89.3705 201.282H94.0336C93.988 200.644 93.7603 200.149 93.3503 199.796C92.9404 199.431 92.4052 199.249 91.7448 199.249C91.0843 199.249 90.5434 199.431 90.1221 199.796C89.7122 200.149 89.4616 200.644 89.3705 201.282ZM101.395 206.594C100.325 206.594 99.4365 206.354 98.7305 205.876C98.0245 205.398 97.5917 204.675 97.4323 203.707L99.0721 203.314C99.1632 203.781 99.3169 204.151 99.5332 204.424C99.7496 204.698 100.017 204.891 100.336 205.005C100.666 205.119 101.019 205.176 101.395 205.176C101.953 205.176 102.38 205.068 102.676 204.851C102.984 204.635 103.137 204.356 103.137 204.014C103.137 203.673 102.995 203.422 102.71 203.263C102.426 203.103 102.004 202.973 101.446 202.87L100.866 202.768C100.296 202.665 99.7781 202.517 99.3112 202.323C98.8443 202.13 98.4742 201.862 98.201 201.521C97.9277 201.179 97.791 200.741 97.791 200.205C97.791 199.408 98.0871 198.793 98.6792 198.361C99.2713 197.917 100.057 197.695 101.036 197.695C101.981 197.695 102.756 197.911 103.359 198.344C103.974 198.765 104.373 199.34 104.555 200.069L102.915 200.53C102.813 200.018 102.596 199.659 102.266 199.454C101.936 199.238 101.526 199.129 101.036 199.129C100.558 199.129 100.182 199.22 99.909 199.403C99.6357 199.573 99.4991 199.818 99.4991 200.137C99.4991 200.479 99.63 200.729 99.8919 200.889C100.165 201.048 100.53 201.168 100.985 201.247L101.583 201.35C102.186 201.452 102.739 201.595 103.24 201.777C103.741 201.959 104.134 202.221 104.418 202.563C104.714 202.904 104.862 203.36 104.862 203.929C104.862 204.772 104.549 205.426 103.923 205.893C103.297 206.36 102.454 206.594 101.395 206.594ZM106.919 206.354V197.934H108.678V206.354H106.919ZM107.807 196.789C107.465 196.789 107.175 196.681 106.936 196.465C106.708 196.237 106.594 195.947 106.594 195.594C106.594 195.241 106.708 194.956 106.936 194.74C107.175 194.512 107.465 194.398 107.807 194.398C108.16 194.398 108.45 194.512 108.678 194.74C108.906 194.956 109.02 195.241 109.02 195.594C109.02 195.947 108.906 196.237 108.678 196.465C108.45 196.681 108.16 196.789 107.807 196.789ZM110.879 202.187V201.931C110.879 201.042 111.056 200.285 111.409 199.659C111.773 199.033 112.251 198.549 112.843 198.207C113.435 197.865 114.085 197.695 114.791 197.695C115.61 197.695 116.237 197.848 116.669 198.156C117.113 198.463 117.438 198.793 117.643 199.146H117.916V197.934H119.624V208.08C119.624 208.592 119.471 209.002 119.163 209.309C118.867 209.617 118.457 209.771 117.933 209.771H112.263V208.233H117.387C117.717 208.233 117.882 208.063 117.882 207.721V205.039H117.609C117.484 205.244 117.307 205.455 117.079 205.671C116.852 205.888 116.55 206.064 116.174 206.201C115.81 206.337 115.348 206.406 114.791 206.406C114.085 206.406 113.43 206.241 112.826 205.91C112.234 205.569 111.762 205.085 111.409 204.459C111.056 203.821 110.879 203.064 110.879 202.187ZM115.269 204.868C116.032 204.868 116.658 204.629 117.148 204.151C117.649 203.661 117.899 202.99 117.899 202.136V201.982C117.899 201.105 117.654 200.433 117.165 199.966C116.675 199.488 116.043 199.249 115.269 199.249C114.517 199.249 113.891 199.488 113.39 199.966C112.9 200.433 112.655 201.105 112.655 201.982V202.136C112.655 202.99 112.9 203.661 113.39 204.151C113.891 204.629 114.517 204.868 115.269 204.868ZM122.215 206.354V197.934H123.94V199.198H124.213C124.372 198.856 124.657 198.537 125.067 198.241C125.477 197.945 126.086 197.797 126.895 197.797C127.532 197.797 128.096 197.939 128.586 198.224C129.087 198.509 129.48 198.913 129.764 199.437C130.049 199.949 130.191 200.57 130.191 201.299V206.354H128.432V201.435C128.432 200.706 128.25 200.171 127.885 199.83C127.521 199.477 127.02 199.3 126.382 199.3C125.653 199.3 125.067 199.539 124.623 200.018C124.19 200.496 123.974 201.19 123.974 202.101V206.354H122.215ZM132.723 206.354V197.934H134.482V206.354H132.723ZM133.611 196.789C133.27 196.789 132.979 196.681 132.74 196.465C132.513 196.237 132.399 195.947 132.399 195.594C132.399 195.241 132.513 194.956 132.74 194.74C132.979 194.512 133.27 194.398 133.611 194.398C133.964 194.398 134.255 194.512 134.482 194.74C134.71 194.956 134.824 195.241 134.824 195.594C134.824 195.947 134.71 196.237 134.482 196.465C134.255 196.681 133.964 196.789 133.611 196.789ZM137.093 206.354V197.934H138.819V199.198H139.092C139.251 198.856 139.536 198.537 139.946 198.241C140.356 197.945 140.965 197.797 141.773 197.797C142.411 197.797 142.975 197.939 143.464 198.224C143.966 198.509 144.358 198.913 144.643 199.437C144.928 199.949 145.07 200.57 145.07 201.299V206.354H143.311V201.435C143.311 200.706 143.129 200.171 142.764 199.83C142.4 199.477 141.899 199.3 141.261 199.3C140.532 199.3 139.946 199.539 139.502 200.018C139.069 200.496 138.853 201.19 138.853 202.101V206.354H137.093ZM147.192 202.187V201.931C147.192 201.042 147.369 200.285 147.722 199.659C148.086 199.033 148.564 198.549 149.156 198.207C149.748 197.865 150.398 197.695 151.104 197.695C151.923 197.695 152.55 197.848 152.982 198.156C153.426 198.463 153.751 198.793 153.956 199.146H154.229V197.934H155.937V208.08C155.937 208.592 155.784 209.002 155.476 209.309C155.18 209.617 154.77 209.771 154.246 209.771H148.576V208.233H153.7C154.03 208.233 154.195 208.063 154.195 207.721V205.039H153.922C153.797 205.244 153.62 205.455 153.392 205.671C153.165 205.888 152.863 206.064 152.487 206.201C152.123 206.337 151.661 206.406 151.104 206.406C150.398 206.406 149.743 206.241 149.139 205.91C148.547 205.569 148.075 205.085 147.722 204.459C147.369 203.821 147.192 203.064 147.192 202.187ZM151.582 204.868C152.345 204.868 152.971 204.629 153.461 204.151C153.962 203.661 154.212 202.99 154.212 202.136V201.982C154.212 201.105 153.967 200.433 153.478 199.966C152.988 199.488 152.356 199.249 151.582 199.249C150.83 199.249 150.204 199.488 149.703 199.966C149.213 200.433 148.968 201.105 148.968 201.982V202.136C148.968 202.99 149.213 203.661 149.703 204.151C150.204 204.629 150.83 204.868 151.582 204.868ZM166.895 206.594C165.996 206.594 165.198 206.434 164.504 206.115C163.809 205.797 163.263 205.33 162.864 204.715C162.477 204.088 162.283 203.331 162.283 202.443V202.016H164.111V202.443C164.111 203.286 164.361 203.918 164.863 204.339C165.375 204.76 166.052 204.971 166.895 204.971C167.749 204.971 168.392 204.794 168.825 204.441C169.258 204.077 169.474 203.61 169.474 203.041C169.474 202.665 169.372 202.358 169.167 202.118C168.962 201.879 168.671 201.691 168.296 201.555C167.92 201.407 167.47 201.27 166.946 201.145L166.314 200.991C165.551 200.809 164.885 200.587 164.316 200.325C163.758 200.052 163.325 199.693 163.018 199.249C162.71 198.805 162.557 198.236 162.557 197.541C162.557 196.835 162.727 196.231 163.069 195.73C163.422 195.229 163.906 194.842 164.521 194.569C165.136 194.296 165.859 194.159 166.69 194.159C167.521 194.159 168.262 194.301 168.911 194.586C169.571 194.871 170.089 195.292 170.465 195.85C170.841 196.408 171.029 197.108 171.029 197.951V198.566H169.201V197.951C169.201 197.438 169.093 197.023 168.876 196.704C168.671 196.385 168.381 196.152 168.005 196.004C167.63 195.856 167.191 195.782 166.69 195.782C165.961 195.782 165.392 195.935 164.982 196.243C164.584 196.539 164.384 196.954 164.384 197.49C164.384 197.854 164.47 198.156 164.64 198.395C164.823 198.623 165.085 198.811 165.426 198.959C165.768 199.107 166.195 199.238 166.707 199.351L167.339 199.505C168.114 199.676 168.797 199.898 169.389 200.171C169.981 200.433 170.448 200.792 170.789 201.247C171.131 201.703 171.302 202.289 171.302 203.007C171.302 203.724 171.12 204.35 170.755 204.886C170.402 205.421 169.896 205.842 169.235 206.15C168.575 206.446 167.795 206.594 166.895 206.594ZM176.45 206.354C175.937 206.354 175.527 206.201 175.22 205.893C174.924 205.586 174.776 205.176 174.776 204.664V199.42H172.453V197.934H174.776V195.15H176.535V197.934H179.046V199.42H176.535V204.356C176.535 204.698 176.694 204.868 177.013 204.868H178.773V206.354H176.45ZM184.341 206.508C183.703 206.508 183.134 206.366 182.633 206.081C182.132 205.797 181.739 205.392 181.454 204.868C181.17 204.345 181.027 203.718 181.027 202.99V197.934H182.787V202.87C182.787 203.599 182.969 204.14 183.333 204.493C183.698 204.834 184.204 205.005 184.853 205.005C185.571 205.005 186.146 204.766 186.579 204.288C187.023 203.798 187.245 203.098 187.245 202.187V197.934H189.004V206.354H187.279V205.091H187.006C186.846 205.432 186.561 205.757 186.152 206.064C185.742 206.36 185.138 206.508 184.341 206.508ZM195.089 206.594C194.394 206.594 193.751 206.423 193.159 206.081C192.567 205.74 192.089 205.25 191.724 204.612C191.371 203.963 191.195 203.183 191.195 202.272V202.016C191.195 201.116 191.371 200.342 191.724 199.693C192.077 199.044 192.55 198.549 193.142 198.207C193.734 197.865 194.383 197.695 195.089 197.695C195.636 197.695 196.091 197.763 196.456 197.9C196.831 198.036 197.139 198.213 197.378 198.429C197.617 198.634 197.799 198.85 197.924 199.078H198.198V194.398H199.957V206.354H198.232V205.159H197.959C197.742 205.523 197.412 205.853 196.968 206.15C196.535 206.446 195.909 206.594 195.089 206.594ZM195.584 205.056C196.347 205.056 196.974 204.812 197.463 204.322C197.964 203.832 198.215 203.132 198.215 202.221V202.067C198.215 201.168 197.97 200.473 197.48 199.983C196.991 199.494 196.359 199.249 195.584 199.249C194.833 199.249 194.207 199.494 193.706 199.983C193.216 200.473 192.971 201.168 192.971 202.067V202.221C192.971 203.132 193.216 203.832 193.706 204.322C194.207 204.812 194.833 205.056 195.584 205.056ZM202.547 206.354V197.934H204.306V206.354H202.547ZM203.435 196.789C203.093 196.789 202.803 196.681 202.564 196.465C202.336 196.237 202.222 195.947 202.222 195.594C202.222 195.241 202.336 194.956 202.564 194.74C202.803 194.512 203.093 194.398 203.435 194.398C203.788 194.398 204.078 194.512 204.306 194.74C204.534 194.956 204.648 195.241 204.648 195.594C204.648 195.947 204.534 196.237 204.306 196.465C204.078 196.681 203.788 196.789 203.435 196.789ZM210.863 206.594C210.02 206.594 209.269 206.423 208.608 206.081C207.959 205.728 207.447 205.227 207.071 204.578C206.695 203.929 206.507 203.16 206.507 202.272V202.016C206.507 201.128 206.695 200.365 207.071 199.727C207.447 199.078 207.959 198.577 208.608 198.224C209.269 197.871 210.02 197.695 210.863 197.695C211.705 197.695 212.457 197.871 213.117 198.224C213.778 198.577 214.296 199.078 214.672 199.727C215.048 200.365 215.235 201.128 215.235 202.016V202.272C215.235 203.16 215.048 203.929 214.672 204.578C214.296 205.227 213.778 205.728 213.117 206.081C212.457 206.423 211.705 206.594 210.863 206.594ZM210.863 205.022C211.637 205.022 212.263 204.777 212.742 204.288C213.231 203.787 213.476 203.098 213.476 202.221V202.067C213.476 201.19 213.237 200.507 212.759 200.018C212.28 199.517 211.648 199.266 210.863 199.266C210.1 199.266 209.474 199.517 208.984 200.018C208.506 200.507 208.267 201.19 208.267 202.067V202.221C208.267 203.098 208.506 203.787 208.984 204.288C209.474 204.777 210.1 205.022 210.863 205.022Z" fill="#E7A05E"></path><path d="M132.813 76.6024L137.845 79.4782L137.845 79.4665C139.521 80.2837 141.521 79.066 141.521 77.1516V76.4666C141.521 74.3651 140.411 72.4209 138.603 71.3569L137.952 70.9738L137.952 70.9637L137.732 70.8442L137.631 70.7848L137.631 70.7895L136.706 70.2877H136.701L136.325 70.0741C131.932 67.5831 126.554 67.6021 122.178 70.1241L121.8 70.3421H121.796L82.096 93.1989C77.9017 95.6162 75.3159 100.096 75.3159 104.946V119.647C75.3159 123.526 79.5018 125.954 82.8569 124.02L125.808 99.2878C127.995 98.0284 130.683 98.0195 132.879 99.2646L150.264 109.124C153.711 111.08 157.982 108.584 157.982 104.614V67.9416C157.982 62.7827 155.211 58.0231 150.731 55.4843L150.264 55.2198L149.157 54.5899L136.246 47.2672C131.857 44.778 126.483 44.7951 122.109 47.3121L84.9957 68.6843C84.044 69.2324 82.8569 68.5438 82.8569 67.4435V37.0901C82.8569 34.527 84.2246 32.1598 86.4424 30.8842L125.514 8.38633C127.701 7.12686 130.389 7.11834 132.585 8.36392L146.64 16.336C148.88 17.6056 150.264 19.985 150.264 22.564V31.093C150.264 31.7791 149.526 32.2104 148.931 31.8724H148.926L136.174 24.6383C131.782 22.1478 126.405 22.1663 122.03 24.6869L121.656 24.9026H121.651L101.886 36.2818L95.0586 40.3443C93.2762 41.405 92.1836 43.3288 92.1836 45.4065C92.1836 47.6899 94.6645 49.1038 96.622 47.936L98.8001 46.6366L109.345 40.5189H109.35L125.587 31.1659C127.774 29.9072 130.461 29.8984 132.656 31.1427L148.958 40.3875L150.264 41.1262L154.999 43.8117C156.331 44.5675 157.982 43.6026 157.982 42.0681V22.6112C157.982 17.4545 155.214 12.6967 150.737 10.157L136.094 1.8531C131.704 -0.634931 126.329 -0.61645 121.956 1.90172L82.8569 24.4178L81.9165 24.957C77.8333 27.309 75.3159 31.6695 75.3159 36.3901V74.0692C75.3159 77.9485 79.501 80.3768 82.8569 78.4448L116.71 58.9539H116.714L125.658 53.8004C127.846 52.5398 130.535 52.5307 132.731 53.7763L146.641 61.6665C148.88 62.9363 150.264 65.3153 150.264 67.8937V98.169C150.264 99.2651 149.085 99.9542 148.134 99.4144L136.396 92.7565C132.006 90.2673 126.632 90.2844 122.258 92.8014L84.9956 114.26C84.0439 114.808 82.8569 114.119 82.8569 113.019V105.435C82.8569 102.873 84.2234 100.507 86.4397 99.2309L125.723 76.6138C127.917 75.3505 130.614 75.3462 132.813 76.6024Z" fill="#E7A05E"></path></svg>