<svg xmlns="http://www.w3.org/2000/svg" width="136" height="59" viewBox="0 0 136 59" fill="none"><path d="M56.9527 21.6831C55.6199 21.6831 54.437 21.4498 53.404 20.9833C52.3877 20.5002 51.588 19.8088 51.0049 18.9091C50.4218 18.0094 50.1302 16.9098 50.1302 15.6103V14.9605H53.1041V15.6103C53.1041 16.7599 53.454 17.6179 54.1537 18.1844C54.8535 18.7508 55.7865 19.034 56.9527 19.034C58.1356 19.034 59.0269 18.7925 59.6267 18.3093C60.2265 17.8262 60.5264 17.2014 60.5264 16.435C60.5264 15.9185 60.3848 15.502 60.1015 15.1855C59.8183 14.8523 59.4018 14.5857 58.852 14.3858C58.3189 14.1858 57.6691 13.9942 56.9027 13.811L56.153 13.661C55.0034 13.3945 54.0038 13.0613 53.1541 12.6614C52.3211 12.2449 51.6797 11.7118 51.2298 11.062C50.78 10.4122 50.5551 9.56255 50.5551 8.51294C50.5551 7.46333 50.805 6.56366 51.3048 5.81394C51.8046 5.06421 52.5127 4.48943 53.429 4.08957C54.3453 3.68972 55.4199 3.4898 56.6528 3.4898C57.8857 3.4898 58.9853 3.69805 59.9516 4.11457C60.9179 4.53108 61.676 5.15585 62.2257 5.98887C62.7922 6.8219 63.0754 7.86318 63.0754 9.11271V9.93741H60.1015V9.11271C60.1015 8.39631 59.9599 7.82153 59.6767 7.38835C59.3935 6.95518 58.9936 6.63863 58.4771 6.43871C57.9607 6.23878 57.3526 6.13882 56.6528 6.13882C55.6199 6.13882 54.8368 6.33874 54.3037 6.73859C53.7705 7.13845 53.504 7.7049 53.504 8.43796C53.504 8.90446 53.6206 9.30431 53.8538 9.63752C54.1038 9.95407 54.462 10.2206 54.9284 10.4372C55.4116 10.6372 56.0114 10.8121 56.7278 10.962L57.4775 11.137C58.6771 11.4035 59.7267 11.7451 60.6263 12.1616C61.526 12.5614 62.2257 13.0946 62.7256 13.761C63.242 14.4274 63.5003 15.2938 63.5003 16.36C63.5003 17.4096 63.2254 18.3343 62.6756 19.134C62.1424 19.9337 61.3844 20.5585 60.4014 21.0083C59.4351 21.4581 58.2855 21.6831 56.9527 21.6831ZM70.6826 21.3332C69.8829 21.3332 69.2414 21.0999 68.7583 20.6334C68.2918 20.1503 68.0585 19.5005 68.0585 18.6842V11.3619H64.8347V8.98776H68.0585V5.01423H70.9325V8.98776H74.4812V11.3619H70.9325V18.2093C70.9325 18.7092 71.1657 18.9591 71.6322 18.9591H74.1063V21.3332H70.6826ZM78.5304 26.3313V23.8323H85.3529C85.8194 23.8323 86.0527 23.5824 86.0527 23.0825V19.6338H85.6278C85.4945 19.9337 85.278 20.2336 84.9781 20.5335C84.6782 20.8167 84.2783 21.0583 83.7785 21.2582C83.2787 21.4415 82.6456 21.5331 81.8792 21.5331C80.9296 21.5331 80.0882 21.3249 79.3551 20.9083C78.6221 20.4752 78.0556 19.8754 77.6558 19.109C77.2559 18.326 77.056 17.418 77.056 16.385V8.98776H79.9049V16.1601C79.9049 17.1597 80.1465 17.9011 80.6297 18.3843C81.1295 18.8674 81.8292 19.109 82.7289 19.109C83.7452 19.109 84.5449 18.7758 85.128 18.1094C85.7278 17.443 86.0277 16.485 86.0277 15.2354V8.98776H88.8766V23.6823C88.8766 24.4987 88.6434 25.1401 88.1769 25.6066C87.7104 26.0898 87.0773 26.3313 86.2776 26.3313H78.5304ZM92.2812 21.3332V3.83967H95.1551V21.3332H92.2812ZM104.195 21.6831C102.962 21.6831 101.871 21.4248 100.922 20.9083C99.9886 20.3752 99.2555 19.6338 98.7224 18.6842C98.2059 17.7179 97.9477 16.5933 97.9477 15.3104V15.0105C97.9477 13.711 98.2059 12.5864 98.7224 11.6368C99.2389 10.6871 99.9636 9.95407 100.897 9.43759C101.83 8.90446 102.904 8.63789 104.12 8.63789C105.32 8.63789 106.37 8.90446 107.269 9.43759C108.169 9.95407 108.869 10.6871 109.368 11.6368C109.868 12.5864 110.118 13.6944 110.118 14.9605V15.9852H100.847C100.88 16.9515 101.221 17.7262 101.871 18.3093C102.521 18.8924 103.321 19.184 104.27 19.184C105.203 19.184 105.895 18.9841 106.345 18.5842C106.794 18.1677 107.136 17.7012 107.369 17.1847L109.743 18.4093C109.51 18.8591 109.169 19.3423 108.719 19.8587C108.286 20.3586 107.702 20.7917 106.969 21.1583C106.236 21.5081 105.312 21.6831 104.195 21.6831ZM100.872 13.811H107.194C107.128 12.9946 106.811 12.3449 106.245 11.8617C105.695 11.3785 104.978 11.137 104.095 11.137C103.179 11.137 102.446 11.3785 101.896 11.8617C101.346 12.3449 101.005 12.9946 100.872 13.811ZM56.9527 47.6831C55.6199 47.6831 54.437 47.4498 53.404 46.9833C52.3877 46.5002 51.588 45.8088 51.0049 44.9091C50.4218 44.0094 50.1302 42.9098 50.1302 41.6103V40.9605H53.1041V41.6103C53.1041 42.7599 53.454 43.6179 54.1537 44.1844C54.8535 44.7508 55.7865 45.034 56.9527 45.034C58.1356 45.034 59.0269 44.7925 59.6267 44.3093C60.2265 43.8262 60.5264 43.2014 60.5264 42.435C60.5264 41.9185 60.3848 41.502 60.1015 41.1855C59.8183 40.8523 59.4018 40.5857 58.852 40.3858C58.3189 40.1858 57.6691 39.9942 56.9027 39.811L56.153 39.661C55.0034 39.3945 54.0038 39.0613 53.1541 38.6614C52.3211 38.2449 51.6797 37.7118 51.2298 37.062C50.78 36.4122 50.5551 35.5625 50.5551 34.5129C50.5551 33.4633 50.805 32.5637 51.3048 31.8139C51.8046 31.0642 52.5127 30.4894 53.429 30.0896C54.3453 29.6897 55.4199 29.4898 56.6528 29.4898C57.8857 29.4898 58.9853 29.6981 59.9516 30.1146C60.9179 30.5311 61.676 31.1558 62.2257 31.9889C62.7922 32.8219 63.0754 33.8632 63.0754 35.1127V35.9374H60.1015V35.1127C60.1015 34.3963 59.9599 33.8215 59.6767 33.3884C59.3935 32.9552 58.9936 32.6386 58.4771 32.4387C57.9607 32.2388 57.3526 32.1388 56.6528 32.1388C55.6199 32.1388 54.8368 32.3387 54.3037 32.7386C53.7705 33.1384 53.504 33.7049 53.504 34.438C53.504 34.9045 53.6206 35.3043 53.8538 35.6375C54.1038 35.9541 54.462 36.2206 54.9284 36.4372C55.4116 36.6372 56.0114 36.8121 56.7278 36.962L57.4775 37.137C58.6771 37.4035 59.7267 37.7451 60.6263 38.1616C61.526 38.5614 62.2257 39.0946 62.7256 39.761C63.242 40.4274 63.5003 41.2938 63.5003 42.36C63.5003 43.4096 63.2254 44.3343 62.6756 45.134C62.1424 45.9337 61.3844 46.5585 60.4014 47.0083C59.4351 47.4581 58.2855 47.6831 56.9527 47.6831ZM65.9843 52.3313V34.9878H68.8083V36.6122H69.2331C69.5163 36.0957 69.9662 35.6375 70.5826 35.2377C71.2157 34.8378 72.1154 34.6379 73.2816 34.6379C74.2812 34.6379 75.2059 34.8878 76.0556 35.3876C76.9219 35.8708 77.6133 36.5872 78.1298 37.5368C78.6463 38.4865 78.9045 39.6277 78.9045 40.9605V41.3604C78.9045 42.6932 78.6463 43.8345 78.1298 44.7841C77.6133 45.7338 76.9303 46.4585 76.0806 46.9583C75.2309 47.4415 74.2979 47.6831 73.2816 47.6831C72.4986 47.6831 71.8405 47.5914 71.3073 47.4082C70.7909 47.2249 70.366 46.9833 70.0328 46.6834C69.7163 46.3835 69.4664 46.0837 69.2831 45.7838H68.8583V52.3313H65.9843ZM72.4319 45.184C73.4815 45.184 74.3396 44.8508 75.006 44.1844C75.6891 43.5013 76.0306 42.535 76.0306 41.2854V41.0355C76.0306 39.7693 75.6891 38.803 75.006 38.1366C74.3229 37.4702 73.4649 37.137 72.4319 37.137C71.399 37.137 70.5326 37.4702 69.8329 38.1366C69.1498 38.803 68.8083 39.7693 68.8083 41.0355V41.2854C68.8083 42.535 69.1498 43.5013 69.8329 44.1844C70.5326 44.8508 71.399 45.184 72.4319 45.184ZM85.5189 47.6831C84.6525 47.6831 83.8695 47.5331 83.1697 47.2332C82.47 46.9167 81.9119 46.4668 81.4954 45.8837C81.0955 45.3006 80.8956 44.5842 80.8956 43.7345C80.8956 42.9015 81.0955 42.2018 81.4954 41.6353C81.9119 41.0688 82.4783 40.644 83.1947 40.3608C83.9111 40.0609 84.7275 39.9109 85.6438 39.9109H89.2175V39.1612C89.2175 38.5115 89.0176 37.9867 88.6177 37.5868C88.2179 37.1703 87.5931 36.962 86.7434 36.962C85.9104 36.962 85.2773 37.162 84.8441 37.5618C84.4276 37.945 84.1527 38.4448 84.0194 39.0613L81.3704 38.1866C81.5703 37.5368 81.8869 36.9454 82.3201 36.4122C82.7699 35.8791 83.3613 35.4543 84.0944 35.1377C84.8275 34.8045 85.7271 34.6379 86.7934 34.6379C88.4095 34.6379 89.6757 35.0461 90.592 35.8624C91.525 36.6621 91.9915 37.8284 91.9915 39.3611V44.2093C91.9915 44.7092 92.2247 44.9591 92.6912 44.9591H93.7408V47.3332H91.7166C91.1168 47.3332 90.6253 47.1832 90.2421 46.8834C89.8589 46.5835 89.6673 46.1753 89.6673 45.6588V45.6088H89.2425C89.1425 45.8421 88.9676 46.1253 88.7177 46.4585C88.4678 46.7917 88.0846 47.0833 87.5681 47.3332C87.0683 47.5664 86.3852 47.6831 85.5189 47.6831ZM85.9937 45.3339C86.9433 45.3339 87.7181 45.0674 88.3178 44.5342C88.9176 43.9844 89.2175 43.2514 89.2175 42.335V42.0851H85.8188C85.2023 42.0851 84.7025 42.2184 84.3193 42.485C83.9361 42.7516 83.7445 43.1431 83.7445 43.6596C83.7445 44.1594 83.9445 44.5675 84.3443 44.8841C84.7442 45.184 85.294 45.3339 85.9937 45.3339ZM101.373 47.6831C100.174 47.6831 99.0907 47.4332 98.1244 46.9333C97.1581 46.4335 96.3917 45.7088 95.8252 44.7591C95.2754 43.8095 95.0005 42.6683 95.0005 41.3354V40.9855C95.0005 39.6527 95.2754 38.5115 95.8252 37.5618C96.3917 36.6122 97.1581 35.8874 98.1244 35.3876C99.0907 34.8878 100.174 34.6379 101.373 34.6379C102.556 34.6379 103.564 34.8461 104.397 35.2627C105.247 35.6792 105.93 36.254 106.446 36.987C106.963 37.7034 107.296 38.5115 107.446 39.4111L104.672 39.9859C104.605 39.4694 104.447 39.0029 104.197 38.5864C103.947 38.1533 103.589 37.8117 103.123 37.5618C102.673 37.3119 102.115 37.1869 101.448 37.1869C100.765 37.1869 100.149 37.3369 99.5988 37.6368C99.0657 37.92 98.6408 38.3532 98.3243 38.9363C98.0244 39.5194 97.8745 40.2192 97.8745 41.0355V41.2854C97.8745 42.1018 98.0244 42.8015 98.3243 43.3847C98.6408 43.9511 99.0657 44.3843 99.5988 44.6842C100.149 44.9841 100.765 45.134 101.448 45.134C102.464 45.134 103.231 44.8758 103.747 44.3593C104.28 43.8262 104.614 43.1431 104.747 42.3101L107.521 42.9598C107.321 43.8262 106.963 44.6175 106.446 45.3339C105.93 46.0503 105.247 46.6251 104.397 47.0583C103.564 47.4748 102.556 47.6831 101.373 47.6831ZM115.715 47.6831C114.482 47.6831 113.39 47.4248 112.441 46.9083C111.508 46.3752 110.775 45.6338 110.242 44.6842C109.725 43.7179 109.467 42.5933 109.467 41.3104V41.0105C109.467 39.711 109.725 38.5864 110.242 37.6368C110.758 36.6871 111.483 35.9541 112.416 35.4376C113.349 34.9045 114.423 34.6379 115.64 34.6379C116.839 34.6379 117.889 34.9045 118.788 35.4376C119.688 35.9541 120.388 36.6871 120.888 37.6368C121.387 38.5864 121.637 39.6944 121.637 40.9605V41.9852H112.366C112.399 42.9515 112.741 43.7262 113.39 44.3093C114.04 44.8924 114.84 45.184 115.789 45.184C116.722 45.184 117.414 44.9841 117.864 44.5842C118.314 44.1677 118.655 43.7012 118.888 43.1847L121.262 44.4093C121.029 44.8591 120.688 45.3423 120.238 45.8587C119.805 46.3586 119.222 46.7917 118.488 47.1583C117.755 47.5081 116.831 47.6831 115.715 47.6831ZM112.391 39.811H118.713C118.647 38.9946 118.33 38.3449 117.764 37.8617C117.214 37.3785 116.498 37.137 115.615 37.137C114.698 37.137 113.965 37.3785 113.415 37.8617C112.866 38.3449 112.524 38.9946 112.391 39.811ZM129.436 47.6831C127.836 47.6831 126.52 47.3332 125.487 46.6334C124.454 45.9337 123.83 44.9091 123.613 43.5596L126.262 42.8848C126.379 43.5179 126.587 44.0178 126.887 44.3843C127.187 44.7508 127.553 45.0091 127.986 45.159C128.436 45.3089 128.919 45.3839 129.436 45.3839C130.219 45.3839 130.802 45.2423 131.185 44.9591C131.585 44.6758 131.785 44.3176 131.785 43.8845C131.785 43.4346 131.593 43.1014 131.21 42.8848C130.844 42.6683 130.277 42.485 129.511 42.335L128.736 42.2101C127.886 42.0435 127.112 41.8186 126.412 41.5353C125.712 41.2354 125.146 40.8356 124.713 40.3358C124.296 39.8193 124.088 39.1695 124.088 38.3865C124.088 37.1869 124.529 36.2623 125.412 35.6125C126.312 34.9628 127.487 34.6379 128.936 34.6379C130.319 34.6379 131.46 34.9461 132.36 35.5625C133.259 36.179 133.843 37.0037 134.109 38.0366L131.46 38.8363C131.327 38.1366 131.035 37.6451 130.585 37.3619C130.136 37.062 129.586 36.912 128.936 36.912C128.27 36.912 127.753 37.0287 127.387 37.2619C127.037 37.4952 126.862 37.8284 126.862 38.2615C126.862 38.6947 127.045 39.0196 127.412 39.2362C127.778 39.4528 128.27 39.611 128.886 39.711L129.661 39.861C130.577 40.0276 131.402 40.2441 132.135 40.5107C132.885 40.7773 133.476 41.1605 133.909 41.6603C134.342 42.1601 134.559 42.8349 134.559 43.6845C134.559 44.9674 134.092 45.9587 133.159 46.6584C132.243 47.3415 131.002 47.6831 129.436 47.6831Z" fill="#E7A05E"></path><path d="M27.8033 36.1013L30.1531 37.4441L30.1532 37.4386C30.9357 37.8202 31.8696 37.2516 31.8696 36.3577V36.0379C31.8696 35.0566 31.3511 34.1488 30.507 33.652L30.2031 33.4731L30.2031 33.4684L30.1003 33.4126L30.0531 33.3849L30.0531 33.387L29.6211 33.1527H29.619L29.4431 33.053C27.392 31.8899 24.8806 31.8988 22.8378 33.0764L22.6612 33.1781H22.6591L4.12192 43.8508C2.16342 44.9795 0.956055 47.0713 0.956055 49.3358V56.2002C0.956055 58.0116 2.9106 59.1451 4.47718 58.2423L24.5326 46.6939C25.5539 46.1058 26.809 46.1017 27.8341 46.683L35.952 51.2869C37.5615 52.1999 39.5555 51.0344 39.5555 49.1807V32.0572C39.5555 29.6484 38.262 27.426 36.17 26.2405L35.952 26.117L35.4348 25.8229L29.4066 22.4037C27.357 21.2414 24.8476 21.2494 22.8054 22.4246L5.47588 32.404C5.03148 32.66 4.47718 32.3384 4.47718 31.8247V17.6516C4.47718 16.4549 5.11581 15.3495 6.15138 14.7539L24.3951 4.24887C25.4165 3.66078 26.6718 3.6568 27.6969 4.23841L34.2598 7.96086C35.3055 8.55368 35.952 9.6647 35.952 10.8689V14.8514C35.952 15.1717 35.6074 15.3731 35.3293 15.2153H35.3272L29.3727 11.8375C27.322 10.6746 24.8112 10.6832 22.7685 11.8602L22.5937 11.9609H22.5916L13.3623 17.2742L10.1746 19.1712C9.34233 19.6664 8.83215 20.5647 8.83215 21.5349C8.83215 22.601 9.99059 23.2612 10.9046 22.716L11.9216 22.1092L16.8455 19.2527H16.8476L24.4296 14.8854C25.4506 14.2977 26.7053 14.2936 27.7302 14.8746L35.3419 19.1913L35.952 19.5362L38.1626 20.7902C38.7847 21.1431 39.5555 20.6926 39.5555 19.976V10.8909C39.5555 8.48312 38.2631 6.26153 36.1725 5.07566L29.3353 1.19828C27.2854 0.0365367 24.776 0.0451661 22.7341 1.22098L4.47718 11.7345L4.0381 11.9863C2.13152 13.0845 0.956055 15.1206 0.956055 17.3248V34.9185C0.956055 36.7298 2.9102 37.8637 4.47718 36.9616L20.2842 27.8606H20.2864L24.4625 25.4542C25.484 24.8656 26.7396 24.8614 27.765 25.443L34.2604 29.1272C35.3057 29.7201 35.952 30.8309 35.952 32.0349V46.1714C35.952 46.6832 35.4015 47.005 34.9571 46.753L29.4763 43.6442C27.4266 42.4819 24.9173 42.4899 22.875 43.6651L5.47585 53.6848C5.03145 53.9407 4.47718 53.6192 4.47718 53.1054V49.5643C4.47718 48.3681 5.11527 47.2631 6.15015 46.6673L24.4926 36.1066C25.5172 35.5167 26.7768 35.5147 27.8033 36.1013Z" fill="#E7A05E"></path></svg>