<svg xmlns="http://www.w3.org/2000/svg" width="206" height="41" viewBox="0 0 206 41" fill="none"><path d="M21.7377 0.202393C9.73539 0.202393 0 10.0647 0 22.2236V37.9529H6.21076V22.2236C6.21076 13.5409 13.1668 6.49414 21.7377 6.49414C30.3085 6.49414 37.2646 13.5409 37.2646 22.2236V37.9529H43.4755V22.2236C43.4755 10.0647 33.7401 0.202393 21.7377 0.202393Z" fill="#4867FF"></path><path d="M31.054 37.953V32.9197H12.4216V37.953H31.054Z" fill="#4867FF"></path><path d="M31.054 27.8863V22.8528H12.4216V27.8863H31.054Z" fill="#4867FF"></path><path d="M13.4927 17.8193H29.9666C28.414 14.8307 25.3086 12.7859 21.7374 12.7859C18.1662 12.7859 15.0609 14.8307 13.4927 17.8193Z" fill="#4867FF"></path><path d="M69.8248 33.1869C74.4052 33.3444 78.8459 31.2365 81.6096 27.5873L81.6406 27.5401L77.3243 24.064L77.2931 24.1112C75.5385 26.502 73.0853 27.7132 70.1819 27.603C67.744 27.5244 65.5392 26.4705 63.971 24.6617C62.434 22.8842 61.6419 20.5248 61.7195 18.0082C61.8127 15.5072 62.7755 13.2264 64.4369 11.5748C66.1292 9.90748 68.396 9.02664 70.8495 9.12101C73.7064 9.21538 76.051 10.5838 77.6658 13.0691L77.6968 13.1163L82.2463 9.98614L82.215 9.93894C79.6843 6.02232 75.5231 3.67864 70.8339 3.52136C70.6631 3.52136 70.4924 3.50562 70.3216 3.50562C66.6261 3.50562 63.1482 4.90553 60.4618 7.50089C57.6515 10.1906 56.0367 13.8556 55.897 17.8037C55.7572 21.7989 57.1237 25.5898 59.7322 28.484C62.3562 31.3781 65.9429 33.0612 69.8248 33.1869Z" fill="#0C1431"></path><path fill-rule="evenodd" clip-rule="evenodd" d="M152.459 13.7141C150.332 11.7321 147.474 10.6311 144.431 10.6311C141.388 10.6311 138.531 11.7321 136.404 13.7141C134.168 15.7903 132.941 18.7159 132.941 21.9406C132.941 25.1493 134.168 28.0435 136.404 30.1199C138.531 32.1017 141.388 33.2028 144.431 33.2028C147.474 33.2028 150.332 32.1175 152.459 30.1199C154.694 28.0435 155.921 25.1336 155.921 21.9406C155.921 18.7159 154.694 15.7903 152.459 13.7141ZM144.431 27.902C141.155 27.902 138.686 25.3381 138.686 21.9406C138.686 18.5116 141.155 15.9162 144.431 15.9162C147.707 15.9162 150.177 18.4959 150.177 21.9406C150.177 25.3381 147.707 27.902 144.431 27.902Z" fill="#0C1431"></path><path fill-rule="evenodd" clip-rule="evenodd" d="M167.457 32.4635C168.606 32.9354 169.942 33.2028 171.215 33.2028C173.979 33.2028 176.572 32.1331 178.497 30.1829C180.579 28.0908 181.681 25.2438 181.681 21.9406C181.681 16.451 178.017 10.6311 171.215 10.6311C169.072 10.6311 165.998 11.449 164.399 13.7455L163.964 14.3747V11.1974H158.312V40.2968H163.964V29.5063L164.399 30.1354C165.097 31.1266 166.153 31.9287 167.457 32.4635ZM170.052 15.9634C173.281 15.9634 175.888 18.6373 175.888 21.9249C175.888 25.2438 173.326 27.8391 170.052 27.8391C167.21 27.8391 164.166 25.5741 164.166 21.9249C164.166 18.5902 166.759 15.9634 170.052 15.9634Z" fill="#0C1431"></path><path fill-rule="evenodd" clip-rule="evenodd" d="M120.116 16.0891C121.094 16.0891 122.042 16.3879 122.849 16.9542C123.113 17.1272 123.362 17.3475 123.579 17.5991C124.417 18.4956 124.883 19.6754 124.883 20.9179V32.7624H130.535V20.8865C130.566 17.2844 129.697 14.5633 127.973 12.8016C126.56 11.3545 124.588 10.6152 122.12 10.6152C120.023 10.6152 117.244 11.3231 115.8 14.2173L115.334 15.051V11.1972H109.682V32.7779H115.334V21.7045C115.334 21.6415 115.334 21.5944 115.334 21.5315V21.4843V20.9338C115.35 18.2597 117.477 16.0891 120.116 16.0891Z" fill="#0C1431"></path><path d="M204.956 11.1973H199.303V22.6798H199.289C199.148 25.2121 197.053 27.2413 194.522 27.2413C193.947 27.2413 193.373 27.1312 192.829 26.9267C191.82 26.6121 190.982 25.9043 190.437 24.929C189.988 24.174 189.739 23.3089 189.739 22.4124V21.9877C189.739 21.9405 189.739 21.8776 189.739 21.8303V11.1973H184.087V22.4753C184.056 26.0773 184.926 28.7985 186.649 30.5601C188.063 32.0075 190.035 32.7465 192.503 32.7465C194.569 32.7465 197.27 32.432 198.807 29.7108L199.087 29.2075C198.962 32.8568 196.68 35.4993 192.922 35.4521C191.758 35.4835 190.982 35.4205 189.631 35.0904C188.637 34.8544 187.659 34.351 186.681 33.8949L184.693 38.7866C187.363 40.3439 190.593 40.973 193.869 40.8945C199.972 40.8945 204.723 36.1443 204.909 28.7827V28.7513L204.956 11.1973Z" fill="#0C1431"></path><path d="M100.381 11.1972V13.6038V14.2015L100.118 13.7453C99.4343 12.7544 98.2232 11.9522 96.9346 11.4016C95.7857 10.9297 94.4504 10.6624 93.1459 10.6624C90.3822 10.6624 87.7892 11.732 85.8639 13.6824C83.7832 15.7744 82.6809 18.6215 82.6809 21.9245C82.6809 25.2278 83.7832 28.0748 85.8639 30.1667C87.8049 32.1175 90.3822 33.1869 93.1459 33.1869C95.4595 33.1869 98.6116 32.2432 100.118 30.1195L100.381 29.6792V30.2611V32.7621H106.033V11.1972H100.381ZM94.3107 27.9019C91.0654 27.9019 88.4259 25.2278 88.4259 21.9404C88.4259 18.6215 91.0188 16.0261 94.3107 16.0261C97.1519 16.0261 100.195 18.2911 100.195 21.9404C100.195 25.2907 97.6178 27.9019 94.3107 27.9019Z" fill="#0C1431"></path></svg>