<svg xmlns="http://www.w3.org/2000/svg" width="206" height="67" viewBox="0 0 206 67" fill="none"><path d="M64.221 4.3582V4.37905V4.39991V29.7274H64.2168C64.2086 30.6994 63.4163 31.4855 62.4352 31.4855C62.4311 31.4855 62.4311 31.4847 62.4288 31.4847V31.4868H36.9788C36.9539 31.4876 36.9296 31.4951 36.9048 31.4951C35.9198 31.4951 35.1192 30.7037 35.1192 29.7271V29.6313V29.6147C36.0443 15.2178 47.5908 3.69225 62.0779 2.64854L62.432 2.61914C63.4022 2.61914 64.1926 3.38051 64.2178 4.33628H64.2219L64.221 4.3582ZM64.221 62.8268V62.851H64.2168C64.1917 63.8061 63.4012 64.5672 62.431 64.5672L62.077 64.5389C47.5904 63.4943 36.0435 51.9685 35.1184 37.5719V37.5553V37.4589C35.1184 36.4823 35.919 35.6908 36.904 35.6908C36.9289 35.6908 36.9531 35.6971 36.978 35.6992H62.4283V35.7013H62.4343C63.4154 35.7013 64.2081 36.4873 64.2159 37.4585H64.22V62.7861V62.8071L64.221 62.8268Z" fill="#75227D"></path><path d="M30.9614 4.3582C30.9614 4.36445 30.9656 4.37071 30.9656 4.37905C30.9656 4.38531 30.9614 4.39156 30.9614 4.39991V29.7274H30.9572C30.9551 30.6994 30.1574 31.4855 29.1763 31.4855L29.1721 31.4847V31.4868H3.72333C3.69847 31.4876 3.67361 31.4951 3.64561 31.4951C2.66063 31.4951 1.86392 30.7037 1.86392 29.7271C1.86392 29.6885 1.85974 29.6693 1.86392 29.6313V29.6147C2.78823 15.2178 14.335 3.69225 28.8188 2.64854L29.1767 2.61914C30.1469 2.61914 30.9366 3.38051 30.9576 4.33628H30.9618L30.9614 4.3582ZM3.65215 64.5672C2.68194 64.5672 1.89223 63.8056 1.86734 62.7866L1.87152 37.4593C1.87361 36.4881 2.67134 35.702 3.65633 35.6989C3.65633 35.6989 29.1555 35.6906 29.1835 35.6906C30.1685 35.6906 30.9652 36.482 30.9652 37.4586C30.9652 37.4972 30.9694 37.5164 30.9652 37.5712C30.0409 51.9681 18.4942 63.4933 4.01033 64.5379L3.65215 64.5672Z" fill="#8F3E8C"></path><path d="M81.1276 10.2055V16.3928H91.3666V21.0332H81.1276V31.4342H75.2995V5.54736H92.5321V10.2055H81.1276ZM111.518 12.1969V31.4342H106.264L106.103 29.4073C105.481 30.1778 104.734 30.7675 103.862 31.1764C102.989 31.5853 101.991 31.7898 100.867 31.7898C98.8464 31.7898 97.2628 31.209 96.1151 30.0474C94.9674 28.8858 94.3933 27.0842 94.3933 24.6425V12.1969H99.9881V24.678C99.9881 25.567 100.218 26.2278 100.679 26.6604C101.139 27.093 101.776 27.3093 102.589 27.3093C104.179 27.3093 105.284 26.7641 105.906 25.6736V12.1969H111.518ZM130.424 13.5836C131.494 14.7452 132.029 16.6476 132.029 19.2908V31.4342H126.416V19.2553C126.416 18.1411 126.18 17.3736 125.708 16.9528C125.236 16.5321 124.498 16.3217 123.493 16.3217C122.166 16.3217 121.174 16.855 120.517 17.9218V31.4342H114.94V12.1969H120.176L120.373 14.4193C121.043 13.5777 121.847 12.9377 122.785 12.4991C123.723 12.0605 124.767 11.8412 125.914 11.8412C127.851 11.8412 129.354 12.422 130.424 13.5836ZM152.504 4.125V31.4342H147.465L147.196 29.354C145.929 30.9778 144.309 31.7898 142.336 31.7898C140.758 31.7898 139.402 31.3719 138.266 30.5363C137.13 29.7007 136.266 28.548 135.675 27.0782C135.083 25.6084 134.787 23.9313 134.787 22.0467V21.6732C134.787 19.7175 135.083 17.9989 135.675 16.5172C136.266 15.0356 137.13 13.8859 138.266 13.0681C139.402 12.2502 140.77 11.8412 142.372 11.8412C144.19 11.8412 145.696 12.5287 146.891 13.9037V4.125H152.504ZM145.663 26.8382C146.183 26.5241 146.592 26.0707 146.891 25.4781V18.1529C146.305 16.9321 145.271 16.3217 143.789 16.3217C142.605 16.3217 141.741 16.8017 141.197 17.7618C140.654 18.7219 140.382 20.0257 140.382 21.6732V22.0467C140.382 23.6587 140.645 24.9388 141.171 25.887C141.697 26.8352 142.557 27.3093 143.753 27.3093C144.506 27.3093 145.143 27.1523 145.663 26.8382ZM161.466 5.18287C162.04 5.71031 162.327 6.39482 162.327 7.23639C162.327 8.06613 162.04 8.74466 161.466 9.27216C160.892 9.79958 160.139 10.0633 159.207 10.0633C158.274 10.0633 157.524 9.79958 156.956 9.27216C156.389 8.74466 156.105 8.06613 156.105 7.23639C156.105 6.39482 156.389 5.71031 156.956 5.18287C157.524 4.65542 158.274 4.3917 159.207 4.3917C160.139 4.3917 160.892 4.65542 161.466 5.18287ZM156.427 31.4342V12.1969H162.04V31.4342H156.427ZM181.322 13.5836C182.392 14.7452 182.927 16.6476 182.927 19.2908V31.4342H177.314V19.2553C177.314 18.1411 177.078 17.3736 176.606 16.9528C176.134 16.5321 175.395 16.3217 174.391 16.3217C173.064 16.3217 172.072 16.855 171.415 17.9218V31.4342H165.838V12.1969H171.074L171.271 14.4193C171.941 13.5777 172.745 12.9377 173.683 12.4991C174.622 12.0605 175.664 11.8412 176.812 11.8412C178.749 11.8412 180.252 12.422 181.322 13.5836ZM203.778 12.1969V30.7052C203.778 32.4476 203.381 33.944 202.586 35.1945C201.791 36.445 200.673 37.3933 199.233 38.0392C197.792 38.6852 196.115 39.0082 194.202 39.0082C192.876 39.0082 191.534 38.7534 190.177 38.2437C188.82 37.734 187.753 37.0169 186.976 36.0924L189.397 32.6965C189.959 33.3129 190.628 33.8018 191.405 34.1633C192.183 34.5248 193.037 34.7056 193.97 34.7056C195.309 34.7056 196.346 34.3559 197.081 33.6566C197.816 32.9573 198.183 31.9676 198.183 30.6874V29.7985C196.976 31.126 195.452 31.7898 193.611 31.7898C192.021 31.7898 190.631 31.3719 189.442 30.5363C188.252 29.7007 187.337 28.5421 186.698 27.0604C186.059 25.5788 185.739 23.9075 185.739 22.0467V21.6732C185.739 19.7294 186.059 18.0167 186.698 16.535C187.337 15.0534 188.255 13.9007 189.451 13.0769C190.646 12.2531 192.045 11.8412 193.647 11.8412C195.727 11.8412 197.347 12.5465 198.506 13.957L198.721 12.1969H203.778ZM198.183 25.7803V17.8507C197.538 16.8313 196.498 16.3217 195.063 16.3217C193.856 16.3217 192.933 16.8165 192.293 17.8062C191.653 18.7959 191.334 20.085 191.334 21.6732V22.0467C191.334 23.5994 191.647 24.8647 192.275 25.8426C192.902 26.8204 193.82 27.3093 195.028 27.3093C196.462 27.3093 197.514 26.7997 198.183 25.7803ZM94.6303 59.5891C93.7575 60.9578 92.5353 62.0216 90.9631 62.7804C89.3909 63.5387 87.553 63.9182 85.4489 63.9182C83.2015 63.9182 81.2589 63.4114 79.6213 62.3983C77.9832 61.3847 76.7281 59.9356 75.8553 58.051C74.9825 56.1663 74.5461 53.9379 74.5461 51.3661V49.8727C74.5461 47.3242 74.9944 45.1016 75.891 43.2052C76.788 41.3087 78.0578 39.8508 79.7018 38.8315C81.3458 37.8121 83.2615 37.3024 85.4489 37.3024C87.6129 37.3024 89.466 37.6965 91.0079 38.4847C92.5499 39.273 93.7484 40.3634 94.6033 41.7561C95.4582 43.1489 95.9692 44.752 96.1366 46.5654H90.3264C90.2308 45.0246 89.8127 43.8838 89.0712 43.143C88.3302 42.4021 87.1226 42.0317 85.4489 42.0317C83.7395 42.0317 82.4783 42.654 81.6655 43.8986C80.8522 45.1431 80.446 47.1224 80.446 49.8371V51.3661C80.446 53.2151 80.6102 54.7085 80.9391 55.8463C81.268 56.9844 81.7968 57.8259 82.5259 58.371C83.2555 58.9161 84.2298 59.1887 85.4489 59.1887C87.0151 59.1887 88.1897 58.8335 88.9729 58.1222C89.7555 57.4109 90.1951 56.3147 90.2907 54.8327H96.1005C95.993 56.6347 95.5031 58.2199 94.6303 59.5891ZM104.274 37.3113C104.848 37.8388 105.135 38.5233 105.135 39.3648C105.135 40.1945 104.848 40.8731 104.274 41.4006C103.7 41.928 102.947 42.1917 102.014 42.1917C101.082 42.1917 100.332 41.928 99.764 41.4006C99.1963 40.8731 98.9122 40.1945 98.9122 39.3648C98.9122 38.5233 99.1963 37.8388 99.764 37.3113C100.332 36.7839 101.082 36.5201 102.014 36.5201C102.947 36.5201 103.7 36.7839 104.274 37.3113ZM99.2352 63.5625V44.3253H104.848V63.5625H99.2352ZM120.122 44.1831L120.051 49.5526C119.13 49.4577 118.485 49.4102 118.114 49.4102C117.134 49.4102 116.336 49.5645 115.72 49.8727C115.104 50.1809 114.653 50.6429 114.366 51.2592V63.5625H108.771V44.3253H114.026L114.204 46.69C114.695 45.8128 115.301 45.1402 116.025 44.672C116.748 44.2038 117.57 43.9697 118.49 43.9697C119.16 43.9697 119.704 44.0408 120.122 44.1831ZM138.607 56.7708C138.607 58.1578 138.248 59.3932 137.53 60.478C136.813 61.5623 135.839 62.4069 134.607 63.0114C133.376 63.6159 132.001 63.9182 130.483 63.9182C128.535 63.9182 126.882 63.4972 125.525 62.6558C124.168 61.8143 123.152 60.6615 122.476 59.1978C121.801 57.7341 121.463 56.0599 121.463 54.1753V53.7306C121.463 51.8459 121.801 50.169 122.476 48.6989C123.152 47.2292 124.165 46.0736 125.516 45.232C126.867 44.3905 128.517 43.9697 130.465 43.9697C132.067 43.9697 133.481 44.2749 134.706 44.8853C135.932 45.4957 136.888 46.3787 137.575 47.5347C138.263 48.6902 138.607 50.0562 138.607 51.6327H133.352C133.34 50.6963 133.075 49.9316 132.554 49.339C132.034 48.7464 131.296 48.4501 130.34 48.4501C129.073 48.4501 128.209 48.9212 127.749 49.8636C127.288 50.8059 127.058 52.0947 127.058 53.7306V54.1753C127.058 55.8463 127.288 57.141 127.749 58.0601C128.209 58.9787 129.084 59.438 130.376 59.438C131.272 59.438 131.99 59.1978 132.527 58.7175C133.065 58.2377 133.34 57.5889 133.352 56.7708H138.607ZM141.562 63.5625V36.2534H147.174V63.5625H141.562ZM168.294 55.7577H156.119C156.334 56.8954 156.83 57.793 157.607 58.4509C158.384 59.1088 159.376 59.438 160.584 59.438C161.516 59.438 162.377 59.2718 163.166 58.9399C163.955 58.608 164.63 58.0925 165.192 57.3931L167.828 60.5045C167.147 61.4646 166.149 62.2736 164.834 62.9315C163.518 63.5894 161.982 63.9182 160.225 63.9182C158.229 63.9182 156.489 63.5004 155.007 62.6649C153.525 61.8289 152.389 60.7003 151.6 59.2777C150.811 57.8556 150.416 56.2909 150.416 54.5839V53.9082C150.416 52.0002 150.781 50.2964 151.51 48.7966C152.239 47.2973 153.294 46.1181 154.675 45.2587C156.056 44.3994 157.703 43.9697 159.615 43.9697C161.444 43.9697 163.011 44.3519 164.313 45.1165C165.617 45.881 166.606 46.9713 167.281 48.388C167.957 49.8042 168.294 51.4725 168.294 53.3927V55.7577ZM162.807 51.6327C162.807 50.637 162.535 49.8576 161.992 49.2947C161.447 48.7318 160.644 48.4501 159.58 48.4501C157.678 48.4501 156.531 49.659 156.137 52.0769H162.807V51.6327Z" fill="#262838"></path></svg>