<svg xmlns="http://www.w3.org/2000/svg" width="207" height="30" viewBox="0 0 207 30" fill="none"><path d="M50.2394 20.7389H42.747V5.07476C42.747 4.94312 42.6177 4.94312 42.6177 4.94312H39.3882C39.2591 4.94312 39.1299 4.94312 39.1299 5.07476V24.0297C39.1299 24.1613 39.2591 24.1613 39.3882 24.1613H50.2394C50.3685 24.1613 50.3685 24.1613 50.3685 24.0297V21.0021C50.3685 20.8704 50.3685 20.7389 50.2394 20.7389Z" fill="black"></path><path d="M58.2484 8.36554H65.6115C65.6115 8.36554 65.7407 8.2339 65.7407 8.10228V5.07476C65.7407 4.94312 65.6115 4.94312 65.6115 4.94312H54.8898C54.7605 4.94312 54.7605 4.94312 54.7605 5.07476V24.0297C54.7605 24.1613 54.7605 24.1613 54.8898 24.1613H65.6115C65.6115 24.1613 65.7407 24.1613 65.7407 24.0297V21.0021C65.7407 20.8704 65.6115 20.7389 65.6115 20.7389H58.2484V16.0001H64.8364C64.8364 16.0001 64.9657 16.0001 64.9657 15.8685V12.9726C64.9657 12.841 64.8364 12.7094 64.8364 12.7094H58.2484V8.36554Z" fill="black"></path><path d="M106.432 24.0297L99.327 5.07476C99.327 4.94312 99.198 4.94312 99.198 4.94312H95.7101C95.5808 4.94312 95.5808 4.94312 95.5808 5.07476L88.4761 24.0297C88.4761 24.0297 88.4761 24.0297 88.4761 24.1613H88.6053H91.9639C91.9639 24.1613 92.093 24.1613 92.093 24.0297L93.7725 19.4226H100.877L102.686 24.0297C102.686 24.1613 102.686 24.1613 102.815 24.1613H106.173H106.303C106.303 24.0297 106.432 24.0297 106.432 24.0297ZM99.8437 16.1318H95.0642L97.3894 9.55021L99.8437 16.1318Z" fill="black"></path><path d="M121.029 20.7389H113.537V5.07476C113.537 4.94312 113.408 4.94312 113.279 4.94312H110.178C110.049 4.94312 110.049 4.94312 110.049 5.07476V24.0297C110.049 24.1613 110.049 24.1613 110.178 24.1613H121.029C121.158 24.1613 121.158 24.1613 121.158 24.0297V21.0021C121.158 20.8704 121.158 20.8704 121.158 20.8704C121.158 20.7389 121.029 20.7389 121.029 20.7389Z" fill="black"></path><path d="M139.373 20.7381H130.589L139.373 5.20569C139.373 5.07405 139.373 5.07405 139.373 4.94243C139.373 4.94243 139.373 4.81079 139.243 4.81079H125.68C125.68 4.81079 125.55 4.94243 125.55 5.07405V8.10158C125.55 8.23322 125.68 8.36484 125.68 8.36484H133.43L124.775 24.029C124.646 24.029 124.646 24.029 124.775 24.1607C124.775 24.1607 124.775 24.2922 124.904 24.2922H139.373C139.373 24.2922 139.502 24.1607 139.502 24.029V21.0014C139.502 20.8699 139.373 20.7381 139.373 20.7381Z" fill="black"></path><path d="M150.74 4.54834C145.444 4.54834 141.439 8.89218 141.439 14.5523C141.439 20.2124 145.444 24.5564 150.74 24.5564C156.166 24.5564 160.17 20.2124 160.17 14.5523C160.17 8.89218 156.166 4.54834 150.74 4.54834ZM156.553 14.5523C156.553 18.8962 153.582 21.1338 150.74 21.1338C147.898 21.1338 145.056 18.8962 145.056 14.5523C145.056 10.2085 147.898 7.97077 150.74 7.97077C153.711 7.97077 156.553 10.2085 156.553 14.5523Z" fill="black"></path><path d="M172.572 4.54834C167.275 4.54834 163.271 8.89218 163.271 14.5523C163.271 20.2124 167.275 24.5564 172.572 24.5564C177.997 24.5564 182.002 20.2124 182.002 14.5523C182.002 8.89218 177.997 4.54834 172.572 4.54834ZM172.442 7.97077C175.284 7.97077 178.256 10.2085 178.256 14.5523C178.256 18.8962 175.414 21.1338 172.442 21.1338C169.601 21.1338 166.759 18.8962 166.759 14.5523C166.759 10.2085 169.601 7.97077 172.442 7.97077Z" fill="black"></path><path d="M203.444 5.07476C203.444 4.94312 203.316 4.94312 203.188 4.94312H199.57C199.44 4.94312 199.44 4.94312 199.44 5.07476L195.307 18.2379L191.044 5.07476C191.044 4.94312 190.915 4.94312 190.786 4.94312H187.169C187.04 4.94312 187.04 4.94312 187.04 5.07476L184.198 24.0297L184.327 24.1613C184.327 24.1613 184.327 24.1613 184.456 24.1613H187.556C187.556 24.1613 187.685 24.1613 187.685 24.0297L189.494 10.9982L193.628 24.1613L193.757 24.293H196.47C196.599 24.293 196.599 24.1613 196.728 24.1613L200.861 10.9982L202.54 24.0297C202.54 24.1613 202.671 24.1613 202.799 24.1613H205.899H206.03V24.0297L203.444 5.07476Z" fill="black"></path><path d="M84.7302 14.1567H81.759C81.6299 14.1567 81.5006 14.2884 81.5006 14.42V20.4751C81.6299 20.4751 81.6299 20.4751 81.5006 20.4751C80.7256 21.0016 79.6921 21.1333 78.788 21.1333C75.4292 21.1333 72.9749 18.3689 72.9749 14.5516C72.9749 10.8659 75.5585 8.10171 79.0463 8.10171C80.7256 8.10171 82.4049 8.62823 83.8259 9.54964L84.0842 9.8129C84.2135 9.8129 84.2135 9.8129 84.3426 9.8129C84.3426 9.68128 84.3426 9.68128 84.3426 9.54964V6.12723C84.3426 5.99559 84.3426 5.99559 84.3426 5.99559L84.2135 5.86397C82.5342 4.94254 80.7256 4.41602 78.788 4.41602C73.4916 4.41602 69.4871 8.75985 69.4871 14.5516C69.4871 20.2118 73.4916 24.5556 78.788 24.5556C80.8547 24.5556 83.0509 24.0291 84.8594 22.8444V22.7127C84.9885 22.7127 84.9885 22.7127 84.9885 22.5812V14.42C84.9885 14.2884 84.9885 14.2884 84.8594 14.1567H84.7302Z" fill="black"></path><path opacity="0.8" d="M24.7911 0.0725098H14.586L10.8398 9.68159H17.9447C18.5906 9.68159 19.1073 9.94485 19.624 10.4714C20.0115 10.8663 20.2699 11.5244 20.2699 12.051C20.2699 12.4459 20.1406 12.7091 20.0115 12.9724L24.9204 0.467403C25.0495 0.335772 25.0495 0.204141 24.9204 0.204141C24.9204 0.0725098 24.7911 0.0725098 24.7911 0.0725098Z" fill="#0066FF"></path><path d="M27.7622 19.4221H17.9446C17.8154 19.4221 17.8154 19.2905 17.6863 19.2905C17.6863 19.1589 17.6863 19.1589 17.6863 19.0272L20.0115 13.1038V12.9722C20.1406 12.7089 20.2699 12.4457 20.2699 12.0508C20.2699 10.7345 19.2364 9.6814 17.9446 9.6814H10.8398L3.34741 28.6364C3.34741 28.7679 3.34741 28.8996 3.47658 28.8996C3.47658 29.0311 3.60577 29.0312 3.60577 29.0312H24.1451C24.2744 29.0312 24.2744 29.0311 24.4037 28.8996L27.8913 19.6854C28.0206 19.6854 28.0206 19.5538 27.8913 19.4221H27.7622Z" fill="#0066FF"></path><path opacity="0.4" d="M4.25158 0.0725098C4.12241 0.0725098 3.99322 0.0725098 3.99322 0.204141L0.376221 9.41833C0.376221 9.41833 0.376221 9.54997 0.376221 9.68159C0.5054 9.68159 0.5054 9.68159 0.634578 9.68159H10.8397L14.5859 0.0725098H4.25158Z" fill="#0066FF"></path></svg>