<svg xmlns="http://www.w3.org/2000/svg" width="207" height="37" viewBox="0 0 207 37" fill="none"><path fill-rule="evenodd" clip-rule="evenodd" d="M120.388 0.989735H94.5718C93.8445 0.989735 93.255 1.57829 93.255 2.30401V35.0877C93.255 35.8135 93.8445 36.4021 94.5718 36.4021H105.813C106.54 36.4021 107.129 35.8135 107.129 35.0877V25.0696H117.279C118.006 25.0696 118.596 24.4813 118.596 23.7554V16.3842C118.596 15.6582 118.006 15.0699 117.279 15.0699H107.129V12.1819H120.388C121.115 12.1819 121.704 11.5936 121.704 10.8677V2.30401C121.704 1.57829 121.115 0.989735 120.388 0.989735ZM137.141 35.0931V2.29958C137.141 1.5736 136.551 0.985042 135.823 0.985303L124.591 0.9913C123.864 0.991562 123.274 1.57985 123.274 2.30557V35.0931C123.274 35.8189 123.864 36.4074 124.591 36.4074H135.824C136.551 36.4074 137.141 35.8189 137.141 35.0931ZM81.5878 18.7142H70.4526C69.7261 18.7142 69.136 19.3033 69.136 20.0285V25.5046C65.5388 25.5046 62.2477 22.6933 62.6446 18.0255C62.9427 14.5364 65.7556 12.0982 69.2247 12.0982C71.3225 12.0982 73.0647 12.8492 74.6294 14.1218C75.1699 14.5599 75.9717 14.4425 76.3793 13.8767L81.3398 6.9796C81.7395 6.4265 81.6509 5.65462 81.1284 5.21654C78.289 2.82788 73.5478 0.43143 67.9396 0.43143C58.6195 0.43143 51.2923 5.75371 49.0588 13.3343L46.8568 6.76028C45.7026 3.31292 42.4712 0.989474 38.8298 0.989474H32.3885C33.5745 3.89184 33.561 5.41211 34.251 10.3902C34.87 14.8389 37.1292 18.6957 37.1292 18.6957C37.1292 18.6957 34.87 22.5524 34.251 26.9985C33.561 31.9767 33.5745 33.4996 32.3885 36.4018H38.8298C42.4712 36.4018 45.7026 34.0785 46.8568 30.6311L49.1008 23.9319C51.4646 32.3156 59.1628 36.9625 68.1797 36.9625C73.8088 36.9625 78.3279 35.2701 81.6404 32.9676C82.4394 32.412 82.9045 31.4916 82.9045 30.519V20.0285C82.9045 19.3033 82.3144 18.7142 81.5878 18.7142ZM170.474 24.7849C170.474 21.2011 169.169 18.3337 165.66 16.2849C162.048 14.1763 157.032 13.3854 155.427 12.9455C154.267 12.6278 153.445 12.1204 153.59 11.4067C153.716 10.7821 154.412 10.4238 155.669 10.4238C158.267 10.4238 160.804 11.6682 162.2 12.4787C162.747 12.7963 163.444 12.6469 163.811 12.1324L167.95 6.33132C168.392 5.71226 168.214 4.85432 167.569 4.44989C164.118 2.28471 159.802 0.430908 154.231 0.430908C146.104 0.430908 138.908 4.57427 138.908 12.2542C138.908 14.7017 140.08 17.4596 142.809 19.6011C146.147 22.2207 149.977 22.8354 152.766 23.5603C154.546 24.0229 154.887 24.6907 154.825 25.2355C154.766 25.7592 154.143 26.3346 152.886 26.3346C150.38 26.3346 146.977 24.7919 144.528 23.2304C143.975 22.8779 143.245 23.0135 142.865 23.547L138.403 29.8193C137.995 30.3934 138.109 31.1915 138.669 31.62C143.52 35.3343 148.542 36.962 154.879 36.962C163.779 36.962 170.474 31.9138 170.474 24.7849ZM205.146 0.989735H193.345C192.618 0.989735 192.029 1.57803 192.029 2.30375V12.427H186.069V2.30375C186.069 1.57803 185.479 0.989735 184.752 0.989735H172.951C172.225 0.989735 171.635 1.57803 171.635 2.30375V35.0877C171.635 35.8138 172.225 36.4021 172.951 36.4021H184.752C185.479 36.4021 186.069 35.8138 186.069 35.0877V24.9645H192.029V35.0877C192.029 35.8138 192.618 36.4021 193.345 36.4021H205.146C205.873 36.4021 206.462 35.8138 206.462 35.0877V2.30375C206.462 1.57803 205.873 0.989735 205.146 0.989735ZM16.6172 26.8019H14.1383V21.6518H16.6172C18.5894 21.6518 19.6029 22.7105 19.6029 24.2281C19.6029 25.7432 18.5894 26.8019 16.6172 26.8019ZM14.1383 10.4283H16.2123C18.1348 10.4283 19.0465 11.3357 19.0465 12.9029C19.0465 14.4702 18.0852 15.3777 16.2123 15.3777H14.1383V10.4283ZM28.061 17.9645C30.9969 16.3477 32.2116 13.7687 32.2116 10.7907C32.2116 4.12027 26.444 0.988431 17.9416 0.988431H2.03625C1.30746 0.988431 0.719727 1.57777 0.719727 2.30271V35.0865C0.719727 35.814 1.30746 36.4008 2.03625 36.4008H18.801C27.4054 36.4008 33.0215 32.9169 33.0215 25.9962C33.0215 22.5616 30.9446 19.4795 28.061 17.9645Z" fill="#005391"></path></svg>