<svg xmlns="http://www.w3.org/2000/svg" width="207" height="34" viewBox="0 0 207 34" fill="none"><path d="M12.3051 33.0292C20.0949 33.0292 24.0488 27.6467 24.0488 21.3121C24.0488 14.9776 16.3201 5.85147 16.3201 5.85147C16.3201 5.85147 12.9211 2.26591 12.3007 0.32373H12.1784C11.5493 2.26591 8.15905 5.85147 8.15905 5.85147C8.15905 5.85147 0.439209 14.9776 0.439209 21.3121C0.439209 27.6423 4.39743 33.0292 12.1828 33.0292H12.3051Z" fill="white"></path><path d="M47.6582 32.8628C55.4479 32.8628 59.4019 27.48 59.4019 21.1456C59.4019 14.8111 51.6734 5.68497 51.6734 5.68497C51.6734 5.68497 48.2743 2.09941 47.654 0.157227H47.5315C46.9068 2.09514 43.5121 5.68497 43.5121 5.68497C43.5121 5.68497 35.7878 14.8111 35.7878 21.1456C35.7878 27.48 39.7462 32.8628 47.5315 32.8628H47.6582Z" fill="white"></path><path d="M29.8856 33.0292C37.6755 33.0292 41.6293 27.6467 41.6293 21.3121C41.6293 14.9776 33.9008 5.85147 33.9008 5.85147C33.9008 5.85147 30.5017 2.26591 29.8814 0.32373H29.7589C29.13 2.26591 25.7395 5.85147 25.7395 5.85147C25.7395 5.85147 18.0154 14.9776 18.0154 21.3121C18.0154 27.6423 21.9736 33.0292 29.7589 33.0292H29.8856Z" fill="white"></path><path fill-rule="evenodd" clip-rule="evenodd" d="M24.0488 21.3121C24.0488 27.6467 20.0949 33.0292 12.3051 33.0292H12.1828C4.39743 33.0292 0.439209 27.6423 0.439209 21.3121C0.439209 14.9776 8.15905 5.85147 8.15905 5.85147C8.15905 5.85147 11.5493 2.26591 12.1784 0.32373H12.3007C12.9211 2.26591 16.3201 5.85147 16.3201 5.85147C16.3201 5.85147 24.0488 14.9776 24.0488 21.3121ZM17.4911 22.8957C17.4911 25.6148 15.7347 27.924 12.279 27.924H12.2222C8.76636 27.924 7.01007 25.6148 7.01007 22.8957C7.01007 20.1809 10.4397 16.2624 10.4397 16.2624C10.4397 16.2624 11.9775 14.6276 12.2222 13.7056H12.279C12.5236 14.6233 14.0615 16.2624 14.0615 16.2624C14.0615 16.2624 17.4911 20.1767 17.4911 22.8957Z" fill="#5FACCE"></path><path fill-rule="evenodd" clip-rule="evenodd" d="M59.4019 21.1456C59.4019 27.48 55.4479 32.8628 47.6582 32.8628H47.5315C39.7462 32.8628 35.7878 27.48 35.7878 21.1456C35.7878 14.8111 43.5121 5.68497 43.5121 5.68497C43.5121 5.68497 46.9068 2.09514 47.5315 0.157227H47.654C48.2743 2.09941 51.6734 5.68497 51.6734 5.68497C51.6734 5.68497 59.4019 14.8111 59.4019 21.1456ZM52.8441 22.7292C52.8441 25.4483 51.0878 27.7576 47.632 27.7576H47.5752C44.1194 27.7576 42.3631 25.4483 42.3631 22.7292C42.3631 20.0102 45.7927 16.0916 45.7927 16.0916C45.7927 16.0916 47.3306 14.4525 47.5752 13.5348H47.632C47.8766 14.4525 49.4145 16.0916 49.4145 16.0916C49.4145 16.0916 52.8441 20.0102 52.8441 22.7292Z" fill="#F2DB13"></path><path fill-rule="evenodd" clip-rule="evenodd" d="M41.6293 21.3121C41.6293 27.6467 37.6755 33.0292 29.8856 33.0292H29.7589C21.9736 33.0292 18.0154 27.6423 18.0154 21.3121C18.0154 14.9776 25.7395 5.85147 25.7395 5.85147C25.7395 5.85147 29.13 2.26591 29.7589 0.32373H29.8814C30.5017 2.26591 33.9008 5.85147 33.9008 5.85147C33.9008 5.85147 41.6293 14.9776 41.6293 21.3121ZM35.0715 22.8957C35.0715 25.6148 33.3152 27.924 29.8594 27.924H29.8026C26.3468 27.924 24.5905 25.6148 24.5905 22.8957C24.5905 20.1809 28.0201 16.2624 28.0201 16.2624C28.0201 16.2624 29.558 14.6276 29.8026 13.7056H29.8594C30.104 14.6233 31.6419 16.2624 31.6419 16.2624C31.6419 16.2624 35.0715 20.1767 35.0715 22.8957Z" fill="#F29624"></path><path d="M68.3491 4.12695H78.1879C82.0195 4.12695 84.868 4.68187 86.7248 5.79596C88.5816 6.91004 89.5122 8.63879 89.5122 10.9908C89.5122 12.536 89.1059 13.8549 88.2975 14.9477C87.4893 16.0404 86.419 16.7447 85.0951 17.0563V17.2442C86.847 17.6966 88.1096 18.4521 88.8961 19.5065C89.6781 20.5608 90.0713 21.931 90.0713 23.6171C90.0713 26.1142 89.1101 28.0863 87.1879 29.5247C85.2655 30.9676 82.6442 31.6846 79.3283 31.6846H68.3491V4.12695ZM75.9685 14.7001H78.2622C79.3545 14.7001 80.2019 14.4782 80.8005 14.0428C81.3991 13.6031 81.6961 12.95 81.6961 12.0835C81.6961 10.5383 80.4991 9.76568 78.105 9.76568H75.9641V14.7001H75.9685ZM75.9685 20.151V25.9391H78.651C81.0321 25.9391 82.2204 24.9616 82.2204 22.9982C82.2204 22.0804 81.9015 21.3761 81.2636 20.8852C80.6258 20.3943 79.704 20.151 78.4937 20.151H75.9685Z" fill="#3E3E3E"></path><path d="M113.821 20.9578C113.821 24.4537 112.86 27.1771 110.937 29.1277C109.015 31.0827 106.324 32.0602 102.864 32.0602C99.5475 32.0602 96.9045 31.0614 94.9473 29.0638C92.9856 27.0661 92.0068 24.364 92.0068 20.9578C92.0068 17.4789 92.9681 14.7727 94.8902 12.8433C96.8127 10.9139 99.5082 9.94922 102.982 9.94922C105.131 9.94922 107.027 10.3974 108.674 11.2853C110.321 12.1774 111.593 13.458 112.484 15.1227C113.375 16.7917 113.821 18.7381 113.821 20.9578ZM99.6613 20.9578C99.6613 22.7932 99.9101 24.1891 100.413 25.1538C100.915 26.1142 101.758 26.5966 102.938 26.5966C104.109 26.5966 104.934 26.1142 105.419 25.1538C105.9 24.1933 106.145 22.7932 106.145 20.9578C106.145 19.1351 105.9 17.7606 105.411 16.8301C104.921 15.8996 104.087 15.4343 102.903 15.4343C101.745 15.4343 100.915 15.8953 100.413 16.8173C99.9101 17.7436 99.6613 19.1266 99.6613 20.9578Z" fill="#3E3E3E"></path><path d="M130.339 31.6846V20.0358C130.339 18.6144 130.13 17.5429 129.71 16.8216C129.291 16.1002 128.623 15.7374 127.696 15.7374C126.425 15.7374 125.503 16.2325 124.939 17.2271C124.372 18.2217 124.092 19.9248 124.092 22.3365V31.6846H116.547V10.3291H122.24L123.188 12.9671H123.629C124.271 11.9597 125.162 11.2084 126.303 10.7047C127.438 10.2011 128.749 9.94922 130.23 9.94922C132.646 9.94922 134.529 10.6322 135.875 12.0024C137.22 13.3726 137.893 15.302 137.893 17.7863V31.6803H130.339V31.6846Z" fill="#3E3E3E"></path><path d="M154.783 15.8527H150.135V31.6848H142.59V15.8527H139.698V12.233L142.747 10.4232V10.0646C142.747 7.25163 143.337 5.22836 144.512 3.99475C145.692 2.7654 147.579 2.14647 150.179 2.14647C151.179 2.14647 152.127 2.21903 153.023 2.3727C153.914 2.52211 154.958 2.78675 156.138 3.16238L154.517 7.93032C153.591 7.67849 152.686 7.55469 151.795 7.55469C151.218 7.55469 150.795 7.72544 150.533 8.07119C150.266 8.41694 150.135 8.9804 150.135 9.75727V10.3207H154.783V15.8527ZM157.597 5.01492C157.597 3.90937 157.912 3.08554 158.541 2.54345C159.17 2.00561 160.188 1.73242 161.59 1.73242C162.993 1.73242 164.015 2.00988 164.657 2.56053C165.299 3.11115 165.623 3.93072 165.623 5.01065C165.623 7.17052 164.277 8.25475 161.59 8.25475C158.93 8.25475 157.597 7.17479 157.597 5.01492ZM165.334 31.6848H157.794V10.3292H165.334V31.6848Z" fill="#3E3E3E"></path><path d="M182.198 9.95361C182.854 9.95361 183.478 10.0048 184.068 10.103L184.492 10.1799L183.819 17.1333C183.203 16.9839 182.347 16.9071 181.255 16.9071C179.608 16.9071 178.41 17.2742 177.668 18.0083C176.921 18.7425 176.549 19.8054 176.549 21.1841V31.6804H169.004V10.3292H174.614L175.794 13.7398H176.16C176.79 12.6086 177.668 11.6952 178.795 10.9951C179.918 10.2994 181.054 9.95361 182.198 9.95361Z" fill="#3E3E3E"></path><path d="M196.515 32.0602C192.876 32.0602 190.049 31.1169 188.035 29.2218C186.021 27.3307 185.016 24.6373 185.016 21.1456C185.016 17.5387 185.951 14.7727 187.812 12.8433C189.678 10.9139 192.339 9.94922 195.799 9.94922C199.093 9.94922 201.636 10.7901 203.431 12.4634C205.227 14.1409 206.122 16.5569 206.122 19.7114V22.9895H192.636C192.688 24.1848 193.134 25.1196 193.977 25.7983C194.82 26.4769 195.969 26.8141 197.42 26.8141C198.743 26.8141 199.962 26.6904 201.076 26.447C202.19 26.2037 203.396 25.7855 204.694 25.1922V30.4894C203.51 31.0786 202.286 31.4883 201.028 31.7145C199.766 31.9492 198.263 32.0602 196.515 32.0602ZM196.07 14.9648C195.183 14.9648 194.44 15.2379 193.841 15.7843C193.243 16.3307 192.893 17.1887 192.789 18.3582H199.268C199.241 17.3295 198.944 16.5057 198.372 15.891C197.804 15.2721 197.035 14.9648 196.07 14.9648Z" fill="#3E3E3E"></path></svg>