<svg xmlns="http://www.w3.org/2000/svg" width="207" height="54" viewBox="0 0 207 54" fill="none"><mask id="mask0_411_23210" style="mask-type:luminance" maskUnits="userSpaceOnUse" x="0" y="-1" width="207" height="55"><path d="M206.778 -0.00439453H0.937012V53.108H206.778V-0.00439453Z" fill="white"></path></mask><g mask="url(#mask0_411_23210)"><path d="M64.4822 24.4711C65.5529 21.9624 67.5417 19.9737 70.0501 18.9335C72.6508 17.8627 75.5879 17.8627 78.1885 18.9335C79.4429 19.4536 80.5443 20.2185 81.5232 21.1669C82.4718 22.1153 83.2674 23.2473 83.7874 24.4711C84.3381 25.7561 84.6133 27.1328 84.6133 28.5402V39.0035H80.483V28.5402C80.483 27.7141 80.33 26.8575 79.9936 26.0926C78.9841 23.7674 76.6892 22.2377 74.1195 22.2683C73.2933 22.2683 72.4365 22.4213 71.6719 22.7578C70.907 23.0637 70.2338 23.5227 69.6525 24.104C69.0713 24.6853 68.6124 25.3583 68.3063 26.0926C67.9699 26.8575 67.8168 27.7141 67.8168 28.5402V39.0035H63.656V28.5402C63.656 27.1328 63.9315 25.7561 64.4822 24.4711Z" fill="#00A8FF"></path><path d="M102.971 31.5999L105.908 34.537L104.47 35.975C100.401 40.0747 93.7928 40.0747 89.7238 36.0056L89.6932 35.975C88.6833 34.9959 87.9187 33.8027 87.3987 32.5178C86.9088 31.2634 86.6643 29.9172 86.6643 28.6016C86.6643 27.2555 86.9088 25.9399 87.3987 24.6855C87.9187 23.4006 88.6833 22.2074 89.6626 21.2284C90.6415 20.2187 91.8346 19.4538 93.1197 18.9338C95.6285 17.9241 98.4737 17.9241 100.983 18.9338C102.298 19.4538 103.461 20.2493 104.44 21.2284L105.908 22.6663L94.3435 34.2617C96.7605 35.4549 99.6669 34.9654 101.564 33.0379L102.971 31.5999ZM92.5996 24.1042C90.6721 26.0011 90.1826 28.9076 91.3758 31.3246L93.0584 29.6113L95.506 27.1943C96.3628 26.3377 97.1887 25.5116 97.9843 24.7467C98.7798 23.9819 99.3917 23.37 99.82 22.9416C98.6574 22.3603 97.3417 22.1462 96.0873 22.3297C94.7411 22.5133 93.5173 23.1558 92.5996 24.1042Z" fill="#00A8FF"></path><path d="M117.105 18.0784C118.512 18.0784 119.889 18.3537 121.174 18.9045C123.652 19.9753 125.64 21.9639 126.711 24.4421C127.262 25.7271 127.537 27.1038 127.537 28.5112V38.9746H117.105C115.728 38.9746 114.351 38.6991 113.066 38.1484C110.557 37.0777 108.538 35.0584 107.467 32.5497C106.366 29.9491 106.366 27.012 107.467 24.4421C107.987 23.2183 108.752 22.0863 109.731 21.1379C110.71 20.1894 111.842 19.4245 113.066 18.9045C114.32 18.3537 115.697 18.0784 117.105 18.0784ZM123.376 34.8137V28.4806C123.376 27.6545 123.223 26.7979 122.887 26.033C122.244 24.5033 121.051 23.3101 119.521 22.6676C118.757 22.331 117.9 22.1781 117.074 22.1781C116.217 22.1781 115.391 22.331 114.596 22.6676C113.066 23.3101 111.873 24.5033 111.23 26.033C110.894 26.7979 110.741 27.6545 110.741 28.4806C110.71 31.9684 113.525 34.7831 117.013 34.8137C117.043 34.8137 117.074 34.8137 117.074 34.8137H123.376Z" fill="#00A8FF"></path><path d="M141.979 18.0782V22.2085H139.899C139.073 22.2085 138.216 22.3615 137.452 22.698C135.922 23.3405 134.728 24.5337 134.086 26.0634C133.75 26.8283 133.596 27.685 133.596 28.511V38.9745H129.405V28.4804C129.405 27.0731 129.681 25.6963 130.231 24.4113C130.751 23.1875 131.516 22.0555 132.495 21.1071C133.474 20.1586 134.606 19.3938 135.86 18.8737C137.145 18.323 138.522 18.0476 139.899 18.0476H141.979V18.0782Z" fill="#00A8FF"></path><path d="M162.081 24.5025C161.561 23.2481 160.796 22.1162 159.847 21.1677C156.849 18.1694 152.29 17.2516 148.374 18.9037C145.866 19.9745 143.846 21.9938 142.775 24.5025C142.225 25.7875 141.949 27.1643 141.949 28.541C141.949 28.8776 141.98 29.2141 142.01 29.5507V43.5938H146.049V36.8016C146.753 37.3523 147.548 37.8112 148.374 38.1785C150.975 39.2493 153.912 39.2493 156.512 38.1785C159.021 37.138 161.01 35.1495 162.081 32.6407C163.182 30.0402 163.182 27.1031 162.081 24.5025ZM158.317 30.9886C158.012 31.7229 157.553 32.4266 156.971 32.9773C156.39 33.5586 155.687 34.0175 154.922 34.3234C153.33 34.9659 151.556 34.9659 149.965 34.3234C149.2 34.0175 148.527 33.5586 147.946 32.9773C147.364 32.3959 146.906 31.7229 146.6 30.9886C146.263 30.2237 146.11 29.3671 146.11 28.541C146.11 25.0532 148.925 22.2079 152.413 22.2079C152.443 22.2079 152.443 22.2079 152.474 22.2079C153.33 22.2079 154.157 22.3609 154.952 22.6974C157.277 23.6765 158.837 26.0017 158.807 28.541C158.807 29.3977 158.654 30.2237 158.317 30.9886Z" fill="#00A8FF"></path><path d="M184.873 28.54C184.873 29.9473 184.598 31.3241 184.047 32.6091C182.976 35.1179 180.987 37.1064 178.479 38.1466C175.878 39.2177 172.941 39.2177 170.34 38.1466C169.086 37.6265 167.954 36.8618 167.006 35.9133C166.057 34.9649 165.262 33.8635 164.741 32.6091C163.64 30.0085 163.64 27.1021 164.741 24.5015C165.812 21.9927 167.801 19.9735 170.34 18.9027C174.257 17.2506 178.815 18.1378 181.813 21.1667C182.762 22.1457 183.526 23.2777 184.047 24.5015C184.598 25.7865 184.873 27.1633 184.873 28.54ZM180.773 28.54C180.804 25.97 179.274 23.6754 176.887 22.6964C175.297 22.0539 173.522 22.0539 171.931 22.6964C171.166 23.0023 170.493 23.4613 169.881 24.0426C168.688 25.2358 168.046 26.8573 168.046 28.54C168.046 29.3661 168.199 30.2227 168.535 30.9876C168.841 31.7218 169.331 32.4255 169.881 32.9762C170.463 33.5575 171.166 34.0165 171.931 34.3224C173.522 34.9649 175.297 34.9649 176.887 34.3224C178.417 33.6799 179.641 32.4867 180.284 30.957C180.62 30.2227 180.773 29.3967 180.773 28.54Z" fill="#00A8FF"></path><path d="M206.778 13.5491H202.739V20.2799C202.036 19.7292 201.24 19.2397 200.414 18.9031C197.813 17.8323 194.876 17.8323 192.276 18.9031C189.767 19.9739 187.748 21.9932 186.677 24.502C185.575 27.1025 185.575 30.009 186.677 32.6096C187.197 33.8334 187.992 34.9654 188.941 35.9138C189.889 36.8622 191.021 37.627 192.276 38.1471C194.876 39.2182 197.813 39.2182 200.414 38.1471C202.923 37.107 204.911 35.1183 205.982 32.6096C206.533 31.3246 206.808 29.9478 206.808 28.5404C206.808 28.3875 206.808 28.2345 206.778 28.0815H206.808L206.778 13.5491ZM202.219 30.988C201.913 31.7223 201.454 32.426 200.873 32.9767C200.292 33.558 199.588 34.0169 198.823 34.3228C197.232 34.9653 195.458 34.9653 193.867 34.3228C193.102 34.0169 192.429 33.558 191.817 32.9767C191.236 32.3954 190.776 31.7223 190.471 30.988C190.134 30.2232 189.981 29.3665 189.981 28.5404C189.981 25.0527 192.796 22.2073 196.284 22.2073C196.314 22.2073 196.314 22.2073 196.345 22.2073C197.202 22.2073 198.027 22.3603 198.823 22.6969C201.179 23.6759 202.709 25.9705 202.709 28.5404C202.709 29.3971 202.556 30.2232 202.219 30.988Z" fill="#00A8FF"></path><path d="M27.4932 -0.00439453C12.8384 -0.00439453 0.937012 11.8969 0.937012 26.5518C0.937012 41.2068 12.8384 53.108 27.4932 53.108C42.1482 53.108 54.0494 41.2068 54.0494 26.5518C54.0188 11.8969 42.1482 0.0262002 27.4932 -0.00439453Z" fill="white"></path><path fill-rule="evenodd" clip-rule="evenodd" d="M27.4932 -0.00439453C12.8384 -0.00439453 0.937012 11.8969 0.937012 26.5518C0.937012 41.2068 12.8384 53.108 27.4932 53.108C42.1482 53.108 54.0494 41.2068 54.0494 26.5518C54.0188 11.8969 42.1482 0.0262002 27.4932 -0.00439453ZM17.917 15.3543L19.0491 13.0597C19.8139 11.4993 21.3131 10.6121 23.4547 10.6121H35.3254C35.8761 10.5815 36.4574 10.7345 36.9164 11.071C37.2529 11.3158 37.4365 11.7135 37.4365 12.1419C37.4365 12.4478 37.3447 12.7843 37.2223 13.0597H23.5159C22.6592 13.0597 22.0168 13.1209 21.3131 14.4365L20.8542 15.3543L12.257 33.2216H9.25876L17.917 15.3543ZM8.61629 36.4646C8.61629 36.8929 8.79982 37.2908 9.13638 37.5354C9.59529 37.8721 10.146 38.0248 10.7273 37.9333H28.1663C30.3079 37.9333 31.807 37.0459 32.5719 35.4856L32.6331 35.3326C32.6906 35.2752 32.724 35.2057 32.7561 35.1393C32.7752 35.0996 32.7938 35.061 32.8167 35.0267L40.2512 19.6376H37.2529L35.7843 22.7276L35.2948 23.7679L35.2642 23.8596L30.7362 33.2522L30.2773 34.17C29.5736 35.4856 28.9311 35.5468 28.0745 35.5468H12.563C12.5477 35.5468 12.5324 35.5392 12.5171 35.5315C12.5018 35.5238 12.4865 35.5162 12.4712 35.5162H8.86101C8.70806 35.8222 8.61629 36.1281 8.61629 36.4646ZM35.9985 39.5544C35.9679 39.6005 35.9373 39.654 35.9068 39.7074C35.8761 39.7609 35.8456 39.8144 35.815 39.8605L35.7538 40.0132C34.9889 41.5738 33.4898 42.4608 31.3482 42.4608H19.4774C18.9267 42.4914 18.3454 42.3387 17.8865 42.002C17.5499 41.7574 17.3664 41.3595 17.3664 40.9312C17.3664 40.5945 17.4582 40.2887 17.6111 39.983H21.2213C21.2366 39.983 21.2519 39.9903 21.2672 39.9981C21.2825 40.0058 21.2978 40.0132 21.3131 40.0132H31.4093C32.1742 40.0132 32.7861 39.8911 33.4592 38.6673L33.9181 37.7493L42.5458 19.7903H45.544L35.9985 39.5544ZM27.2178 17.3121H46.1253C46.2478 17.0368 46.3396 16.7002 46.3702 16.4249C46.3702 15.9966 46.1866 15.5988 45.8502 15.3541C45.391 15.0175 44.8097 14.8646 44.259 14.8951H27.0037C24.862 14.8951 23.3629 15.7824 22.598 17.3427L14.8882 33.3132H17.8253L19.5692 29.7948L24.9844 18.5665C25.5963 17.5263 26.2388 17.3121 27.2178 17.3121Z" fill="#00A8FF"></path></g></svg>