<svg xmlns="http://www.w3.org/2000/svg" width="207" height="31" viewBox="0 0 207 31" fill="none"><path fill-rule="evenodd" clip-rule="evenodd" d="M84.8 27.3734V17.0542C84.8 14.2746 83.0692 11.9521 80.0614 11.9521C77.0531 11.9521 75.1581 14.2746 75.1581 17.0542V27.3734H70.9141V8.56282H74.8695L75.1581 11.0762C76.3115 9.0198 78.7016 8.25854 80.8443 8.25854C83.4402 8.25854 86.077 9.24827 87.2309 12.0278C88.8792 9.24827 91.4338 8.29663 94.1942 8.29663C99.7982 8.29663 102.806 11.5712 102.806 16.978V27.3734H98.5211V16.978C98.5211 14.1985 97.0378 11.9898 94.0295 11.9898C91.0217 11.9898 89.0853 14.2746 89.0853 17.0542V27.3734H84.8Z" fill="#353B45"></path><path fill-rule="evenodd" clip-rule="evenodd" d="M111.255 18.0069C111.255 21.3579 113.604 24.0995 117.476 24.0995C121.391 24.0995 123.74 21.3579 123.74 18.0069C123.74 14.6941 121.185 11.8381 117.476 11.8381C113.604 11.8381 111.255 14.6941 111.255 18.0069ZM128.025 18.0069C128.025 23.5664 123.864 27.755 117.476 27.755C111.131 27.755 107.011 23.5664 107.011 18.0069C107.011 12.4858 111.173 8.2207 117.476 8.2207C123.74 8.2207 128.025 12.4858 128.025 18.0069Z" fill="#353B45"></path><path fill-rule="evenodd" clip-rule="evenodd" d="M145.498 13.2088C143.891 11.8379 142.161 11.4571 140.142 11.4571C137.546 11.4194 135.815 12.2187 135.815 13.7039C135.856 15.2652 137.628 15.8745 140.224 16.103C143.973 16.4073 148.877 17.1689 148.836 22.0049C148.795 25.508 145.457 27.9451 140.183 27.9451C136.886 27.9451 133.59 27.2597 130.912 24.4801L133.136 21.7003C135.032 23.6424 137.875 24.4421 140.265 24.4801C142.284 24.4801 144.55 23.7946 144.591 22.0429C144.633 20.3674 142.902 19.7204 139.894 19.4538C136.062 19.1111 131.653 17.9686 131.612 13.8181C131.612 9.66765 136.268 8.10669 140.059 8.10669C143.191 8.10669 145.622 8.75369 147.888 10.6197L145.498 13.2088Z" fill="#353B45"></path><path fill-rule="evenodd" clip-rule="evenodd" d="M156.089 17.9688C156.089 21.8526 159.056 24.2137 162.681 24.2137C171.459 24.2137 171.459 11.7623 162.681 11.7623C159.056 11.7623 156.089 14.1229 156.089 17.9688ZM169.398 8.60151H173.519C173.519 14.8465 173.519 21.1291 173.519 27.3742H169.48L169.274 24.3279C167.915 26.7267 164.783 27.8692 162.27 27.8692C156.336 27.9072 151.845 24.3657 151.845 17.9688C151.845 11.6861 156.501 8.18262 162.352 8.18262C165.236 8.18262 167.997 9.43931 169.274 11.5719L169.398 8.60151Z" fill="#353B45"></path><path fill-rule="evenodd" clip-rule="evenodd" d="M179.288 27.374H183.533V8.52515H179.288V27.374ZM184.068 3.08028C184.068 6.3168 178.794 6.3168 178.794 3.08028C178.794 -0.118558 184.068 -0.118558 184.068 3.08028Z" fill="#353B45"></path><path fill-rule="evenodd" clip-rule="evenodd" d="M206.484 24.9371C204.218 26.9936 201.704 27.8693 198.778 27.8693C192.927 27.8693 188.065 24.4805 188.065 18.0071C188.065 11.534 192.886 8.14478 198.778 8.14478C201.58 8.14478 203.929 8.94449 206.113 10.9247L203.393 13.552C202.116 12.4095 200.426 11.8768 198.82 11.8768C195.152 11.8768 192.309 14.2755 192.309 18.0071C192.309 21.9671 195.276 24.0616 198.778 24.0616C200.509 24.0616 202.281 23.5665 203.599 22.31L206.484 24.9371Z" fill="#353B45"></path><path fill-rule="evenodd" clip-rule="evenodd" d="M8.62708 30.1664L0.873701 23.0011C0.584417 22.734 0.584417 22.3011 0.873701 22.0341L8.62708 14.8687C8.99632 14.5275 9.59507 14.5275 9.96431 14.8687L17.5726 21.8996C17.9419 22.2408 17.9419 22.7941 17.5726 23.1353L9.96431 30.1664C9.59507 30.5076 8.99632 30.5076 8.62708 30.1664Z" fill="#29CAF3"></path><path fill-rule="evenodd" clip-rule="evenodd" d="M19.4094 20.2032L11.8011 13.1723C11.4319 12.8311 11.4319 12.2777 11.8011 11.9365L19.4094 4.90557C19.7786 4.56435 20.3774 4.56435 20.7466 4.90557L28.3549 11.9365C28.7243 12.2777 28.7243 12.8311 28.3549 13.1723L20.7466 20.2032C20.3774 20.5448 19.7786 20.5448 19.4094 20.2032Z" fill="#29CAF3"></path><path fill-rule="evenodd" clip-rule="evenodd" d="M30.3179 30.0528L22.7095 23.0219C22.3403 22.6807 22.3403 22.1274 22.7095 21.7862L30.3179 14.7552C30.6871 14.4136 31.2859 14.4136 31.6551 14.7552L39.2634 21.7862C39.6326 22.1274 39.6326 22.6807 39.2634 23.0219L31.6551 30.0528C31.2859 30.394 30.6871 30.394 30.3179 30.0528Z" fill="#295AF3"></path><path fill-rule="evenodd" clip-rule="evenodd" d="M41.1023 20.0882L33.494 13.0573C33.1247 12.7161 33.1247 12.1627 33.494 11.8215L41.1023 4.79057C41.4715 4.44937 42.0702 4.44937 42.4394 4.79057L50.0477 11.8215C50.417 12.1627 50.417 12.7161 50.0477 13.0573L42.4394 20.0882C42.0702 20.4294 41.4715 20.4294 41.1023 20.0882Z" fill="#295AF3"></path><path fill-rule="evenodd" clip-rule="evenodd" d="M51.8554 30.081L44.2471 23.0499C43.8779 22.7087 43.8779 22.1554 44.2471 21.8142L51.8554 14.7833C52.2246 14.442 52.8234 14.442 53.1926 14.7833L60.8009 21.8142C61.1701 22.1554 61.1701 22.7087 60.8009 23.0499L53.1926 30.081C52.8234 30.4222 52.2246 30.4222 51.8554 30.081Z" fill="#1B3997"></path></svg>