<svg xmlns="http://www.w3.org/2000/svg" width="206" height="41" viewBox="0 0 206 41" fill="none"><path d="M49.8387 11.2499C47.8969 11.2499 45.8452 12.194 44.5629 13.6465H44.4896V4.53223H40.9358V31.0401H44.1965V29.1882H44.2698C45.5155 30.6044 47.7867 31.5848 49.7654 31.5848C54.8944 31.5848 58.1918 27.5904 58.1918 21.4173C58.1918 15.4258 54.7478 11.2499 49.8387 11.2499ZM49.2159 28.3893C46.541 28.3893 44.4896 26.5736 44.4896 24.1771V19.0207C44.4896 16.4426 46.541 14.4817 49.2159 14.4817C52.6961 14.4817 54.6379 16.9873 54.6379 21.4173C54.6379 25.8837 52.6961 28.3893 49.2159 28.3893Z" fill="#00C805"></path><path d="M29.3953 11.2483C24.1196 11.2483 20.4927 15.4241 20.4927 21.4157C20.4927 27.5525 24.0098 31.5829 29.3953 31.5829C34.708 31.5829 38.1886 27.5525 38.1886 21.4157C38.1886 15.4241 34.5978 11.2483 29.3953 11.2483ZM29.3953 28.3877C26.0614 28.3877 24.0098 25.7006 24.0098 21.4157C24.0098 17.1309 26.0614 14.4801 29.3953 14.4801C32.6197 14.4801 34.6711 17.2034 34.6711 21.4157C34.6711 25.6642 32.6197 28.3877 29.3953 28.3877Z" fill="#00C805"></path><path d="M18.844 12.9903C18.844 8.48755 15.4733 5.6189 10.1975 5.6189H0.158936V31.0375H3.82266V20.9789H9.06179C13.0919 20.9789 14.5573 22.5766 14.5573 27.0066V31.0375H18.1112V27.0066C18.1112 22.9507 16.8655 20.5394 14.1507 19.5482C16.9315 18.5823 18.844 16.3092 18.844 12.9903ZM9.90445 17.7471H3.82266V8.92333H9.86781C13.3483 8.92333 15.1436 10.4121 15.1436 13.3533C15.1436 16.1857 13.3117 17.7471 9.90445 17.7471Z" fill="#00C805"></path><path d="M77.5733 11.2483C75.5216 11.2483 73.3233 12.2288 72.2608 13.6449H72.1876V11.793H68.7073V31.0383H72.2608V18.9464C72.2608 16.2231 74.0561 14.5163 76.8772 14.5163C79.6616 14.5163 80.9806 16.1141 80.9806 19.4547V31.0383H84.5707V18.438C84.5707 14.008 81.8598 11.2483 77.5733 11.2483Z" fill="#00C805"></path><path d="M135.533 11.2483C130.257 11.2483 126.63 15.4241 126.63 21.4157C126.63 27.5525 130.148 31.5829 135.533 31.5829C140.846 31.5829 144.326 27.5525 144.326 21.4157C144.326 15.4241 140.736 11.2483 135.533 11.2483ZM135.533 28.3877C132.199 28.3877 130.148 25.7006 130.148 21.4157C130.148 17.1309 132.199 14.4801 135.533 14.4801C138.757 14.4801 140.809 17.2034 140.809 21.4157C140.809 25.6642 138.757 28.3877 135.533 28.3877Z" fill="#00C805"></path><path d="M160.227 4.53223V13.6465H160.154C158.871 12.1578 156.857 11.2499 154.914 11.2499C150.005 11.2499 146.524 15.4984 146.524 21.4173C146.524 27.5904 149.822 31.5848 154.951 31.5848C156.93 31.5848 159.201 30.6044 160.446 29.1882H160.519V31.0401H163.781V4.53223H160.227ZM160.227 24.1771C160.227 26.5736 158.174 28.3893 155.501 28.3893C152.019 28.3893 150.078 25.8837 150.078 21.4173C150.078 16.9873 152.019 14.4817 155.501 14.4817C158.174 14.4817 160.227 16.4426 160.227 19.0207V24.1771Z" fill="#00C805"></path><path d="M115.639 11.2483C110.364 11.2483 106.737 15.4241 106.737 21.4157C106.737 27.5525 110.254 31.5829 115.639 31.5829C120.952 31.5829 124.432 27.5525 124.432 21.4157C124.432 15.4241 120.842 11.2483 115.639 11.2483ZM115.639 28.3877C112.305 28.3877 110.254 25.7006 110.254 21.4157C110.254 17.1309 112.305 14.4801 115.639 14.4801C118.864 14.4801 120.915 17.2034 120.915 21.4157C120.915 25.6642 118.864 28.3877 115.639 28.3877Z" fill="#00C805"></path><path d="M64.8238 4.53223H60.9766V8.27238H64.8238V4.53223Z" fill="#00C805"></path><path d="M97.2477 11.2499C95.0861 11.2499 92.8879 12.2667 91.8617 13.7192H91.7885V4.53223H88.2346V31.0401H91.7885V18.9481C91.7885 16.3336 93.6939 14.518 96.4051 14.518C99.0796 14.518 100.618 16.261 100.618 19.2749V31.0401H104.172V18.4034C104.172 14.0097 101.498 11.2499 97.2477 11.2499Z" fill="#00C805"></path><path d="M64.6774 11.7917H61.1233V31.0371H64.6774V11.7917Z" fill="#00C805"></path><path d="M188.28 31.9523L188.013 32.0396C186.291 32.6059 183.745 33.481 181.458 34.5233C181.337 34.5815 181.256 34.7411 181.256 34.7411C181.212 34.8393 181.161 34.959 181.103 35.0935L181.096 35.1115C180.838 35.6889 180.487 36.5568 180.333 36.9127L180.217 37.1924C180.198 37.2359 180.209 37.2866 180.246 37.3193C180.268 37.3412 180.293 37.352 180.322 37.352C180.336 37.352 180.355 37.3484 180.373 37.3412L180.648 37.2104C181.275 36.9163 182.067 36.4695 182.895 36.0775L182.924 36.0628C184.502 35.3221 186.284 34.4834 187.356 33.975C187.356 33.975 187.529 33.8843 187.617 33.7136L188.419 32.1158C188.441 32.0759 188.434 32.0249 188.405 31.9886C188.376 31.9523 188.324 31.9379 188.28 31.9523Z" fill="#00C805"></path><path d="M181.86 29.4758C181.975 29.2579 182.495 28.2629 182.612 28.0414L182.634 28.0015C186.121 21.4835 190.372 15.3322 195.264 9.72558L195.4 9.56944C195.439 9.52234 195.446 9.44969 195.417 9.39519C195.385 9.33704 195.322 9.30804 195.259 9.31531L195.054 9.3443C191.845 9.78371 188.595 10.3902 185.393 11.1491C185.074 11.2362 184.869 11.4432 184.826 11.4904C182.43 14.3336 180.161 17.3257 178.079 20.3941C177.977 20.5503 177.941 20.7537 177.967 20.9207C177.989 21.0841 178.49 24.915 179.252 27.8563C177.363 33.2487 175.673 40.3548 175.673 40.3548C175.659 40.4022 175.669 40.4493 175.695 40.4892C175.724 40.5292 175.768 40.5511 175.819 40.5511H176.896C176.966 40.5511 177.025 40.5109 177.051 40.4493L177.124 40.2495C178.223 37.2793 179.476 34.3452 180.861 31.4838C181.183 30.8229 181.86 29.4758 181.86 29.4758Z" fill="#00C805"></path><path d="M196.842 10.8967L196.837 10.6935C196.835 10.6281 196.793 10.5736 196.735 10.5518C196.677 10.5301 196.608 10.5482 196.564 10.5955L196.428 10.748C190.723 17.2878 185.927 24.5429 182.176 32.3174L182.089 32.4989C182.059 32.5569 182.07 32.6259 182.114 32.673C182.143 32.7024 182.184 32.7204 182.223 32.7204C182.242 32.7204 182.264 32.7168 182.286 32.7096L182.473 32.6334C185.678 31.3186 188.95 30.1785 192.199 29.2452C192.394 29.1909 192.559 29.0529 192.651 28.8749C194.076 26.1224 197.384 20.7919 197.384 20.7919C197.468 20.672 197.446 20.4941 197.446 20.4941C197.446 20.4941 196.878 14.1213 196.842 10.8967Z" fill="#00C805"></path><path d="M204.22 1.70172C203.411 1.00453 202.235 0.677719 200.411 0.637778C198.754 0.601462 196.786 0.957331 194.555 1.68357C194.222 1.79977 193.954 1.98496 193.718 2.21373C191.449 4.32346 189.243 6.56391 187.159 8.87332L186.998 9.0476C186.954 9.09849 186.946 9.17111 186.979 9.22561C187.012 9.28377 187.082 9.31276 187.148 9.29826L187.382 9.24737C190.742 8.53565 194.134 7.99099 197.465 7.63149C197.684 7.60608 197.911 7.6787 198.073 7.82758C198.237 7.97643 198.329 8.19071 198.325 8.41221C198.271 11.6876 198.391 14.9775 198.685 18.191L198.702 18.4016C198.71 18.467 198.754 18.5179 198.821 18.5361C198.831 18.5397 198.843 18.5397 198.857 18.5433C198.904 18.5433 198.955 18.5216 198.989 18.4779L199.109 18.3073C200.986 15.6564 203.026 13.0783 205.174 10.6381C205.415 10.3658 205.478 10.1951 205.521 9.94817C206.194 5.67065 205.151 2.50423 204.22 1.70172Z" fill="#00C805"></path></svg>